<svg width="36" height="37" viewBox="0 0 36 37" fill="none" xmlns="http://www.w3.org/2000/svg">
<g opacity="0.5">
<rect y="0.799805" width="36" height="36" rx="18" fill="white"/>
<rect x="0.45" y="1.2498" width="35.1" height="35.1" rx="17.55" stroke="black" stroke-opacity="0.1" stroke-width="0.9"/>
<path fill-rule="evenodd" clip-rule="evenodd" d="M10.6807 17.7195H23.3132L18.4073 12.8136C17.9852 12.3915 17.9852 11.7075 18.4073 11.2863C18.8294 10.8642 19.5125 10.8642 19.9346 11.2863L26.6846 18.0363C26.6873 18.0381 26.6882 18.0417 26.6909 18.0444C26.7872 18.1425 26.8646 18.2586 26.9176 18.3864C27.0275 18.651 27.0275 18.948 26.9176 19.2126C26.8646 19.3413 26.7872 19.4565 26.6909 19.5546C26.6882 19.5573 26.6873 19.5609 26.6846 19.5636L19.9346 26.3136C19.7239 26.5242 19.4477 26.6295 19.1714 26.6295C18.8942 26.6295 18.6179 26.5242 18.4073 26.3136C17.9852 25.8915 17.9852 25.2075 18.4073 24.7863L23.3132 19.8795H10.6807C10.0841 19.8795 9.60075 19.3962 9.60075 18.7995C9.60075 18.2037 10.0841 17.7195 10.6807 17.7195Z" fill="black"/>
</g>
</svg>
