<svg width="60" height="61" viewBox="0 0 60 61" fill="none" xmlns="http://www.w3.org/2000/svg">
<path d="M52.2251 23.4978C52.831 23.3359 53.3468 22.946 53.6707 22.3941C54.3306 21.2364 53.9407 19.7728 52.795 19.113C52.4231 18.897 52.0092 18.7891 51.6013 18.7891C50.7795 18.7891 49.9577 19.2149 49.5139 19.9827C49.1899 20.5346 49.124 21.1764 49.2799 21.8003C49.4419 22.4241 49.8318 22.94 50.4016 23.2639C50.9595 23.5878 51.6013 23.6538 52.2251 23.4978Z" fill="#FCFD9C"/>
<path d="M27.5898 16.0051C27.5898 17.3248 28.6756 18.3985 29.9952 18.3985C31.3149 18.3985 32.4066 17.3308 32.4066 16.0051C32.4066 14.6855 31.3209 13.5938 29.9952 13.5938C28.6756 13.5938 27.5898 14.6795 27.5898 16.0051Z" fill="#FCFD9C"/>
<path d="M6.31954 22.3881C6.94337 23.4738 8.44297 23.9237 9.58267 23.2639C9.95457 23.0299 10.2605 22.748 10.4764 22.3881C10.9023 21.6383 10.9023 20.7086 10.4764 19.9827C10.1525 19.4309 9.63666 19.017 9.01282 18.861C8.79688 18.8071 8.60493 18.7891 8.38899 18.7891C7.9811 18.7891 7.56721 18.897 7.19531 19.113C6.05561 19.7668 5.65971 21.2304 6.31954 22.3881Z" fill="#FCFD9C"/>
<path d="M50.87 24.8177C50.4801 24.7457 50.0842 24.6197 49.7303 24.4278C49.3764 24.2118 49.0705 23.9479 48.8005 23.642L37.5235 31.8838C37.5055 31.9018 37.5055 31.9018 37.4876 31.9018C37.4516 31.9198 37.4336 31.9378 37.3976 31.9558C37.3076 31.9918 37.2176 32.0097 37.1276 32.0097C37.0017 32.0097 36.8937 31.9738 36.8037 31.9198C36.7677 31.9018 36.7318 31.8658 36.7138 31.8478C36.6598 31.8118 36.6238 31.7938 36.5878 31.7398C36.5698 31.7218 36.5518 31.6858 36.5338 31.6498C36.5338 31.6318 36.5158 31.6318 36.5158 31.6139L31.1832 19.5391C30.8113 19.665 30.3974 19.737 29.9895 19.737C29.5817 19.737 29.1858 19.665 28.8139 19.5391L23.4633 31.6139C23.4633 31.6318 23.4453 31.6318 23.4453 31.6498C23.4273 31.6858 23.4093 31.7218 23.3913 31.7398C23.3553 31.7938 23.3193 31.8118 23.2653 31.8478C23.2473 31.8658 23.2113 31.9018 23.1754 31.9198C23.0854 31.9738 22.9774 32.0097 22.8514 32.0097C22.7615 32.0097 22.6715 31.9918 22.5815 31.9558C22.5455 31.9378 22.5275 31.9198 22.4915 31.9018C22.4915 31.9018 22.4735 31.9018 22.4555 31.8838L11.1725 23.636C10.9026 23.9419 10.6207 24.2058 10.2608 24.4038C9.90689 24.6197 9.51099 24.7457 9.12109 24.8297L11.1186 43.2927H48.8665L50.87 24.8177Z" fill="#FCFD9C"/>
<path d="M48.7278 44.6328H11.2617L11.6396 48.0939H48.3499L48.7278 44.6328Z" fill="#FCFD9C"/>
</svg>
