<svg width="36" height="37" viewBox="0 0 36 37" fill="none" xmlns="http://www.w3.org/2000/svg">
<path d="M31.3351 14.3331C31.6986 14.2359 32.0081 14.0019 32.2024 13.6708C32.5983 12.9762 32.3644 12.0981 31.677 11.7022C31.4538 11.5726 31.2055 11.5078 30.9608 11.5078C30.4677 11.5078 29.9746 11.7633 29.7083 12.224C29.514 12.5551 29.4744 12.9402 29.5679 13.3145C29.6651 13.6888 29.8991 13.9984 30.241 14.1927C30.5757 14.387 30.9608 14.4266 31.3351 14.3331Z" fill="#96C0D6"/>
<path d="M16.5547 9.83744C16.5547 10.6292 17.2061 11.2735 17.9979 11.2735C18.7897 11.2735 19.4447 10.6328 19.4447 9.83744C19.4447 9.04565 18.7933 8.39062 17.9979 8.39062C17.2061 8.39062 16.5547 9.04205 16.5547 9.83744Z" fill="#96C0D6"/>
<path d="M3.79133 13.6672C4.16563 14.3187 5.06539 14.5886 5.74921 14.1927C5.97235 14.0523 6.1559 13.8832 6.28547 13.6672C6.541 13.2174 6.541 12.6595 6.28547 12.224C6.09112 11.8929 5.7816 11.6446 5.4073 11.551C5.27774 11.5186 5.16257 11.5078 5.033 11.5078C4.78827 11.5078 4.53993 11.5726 4.31679 11.7022C3.63297 12.0945 3.39544 12.9726 3.79133 13.6672Z" fill="#96C0D6"/>
<path d="M30.522 15.1203C30.2881 15.0771 30.0505 15.0015 29.8382 14.8863C29.6258 14.7568 29.4423 14.5984 29.2803 14.4149L22.5141 19.36C22.5033 19.3708 22.5033 19.3708 22.4925 19.3708C22.4709 19.3815 22.4601 19.3923 22.4385 19.4031C22.3846 19.4247 22.3306 19.4355 22.2766 19.4355C22.201 19.4355 22.1362 19.4139 22.0822 19.3816C22.0606 19.3708 22.0391 19.3492 22.0283 19.3384C21.9959 19.3168 21.9743 19.306 21.9527 19.2736C21.9419 19.2628 21.9311 19.2412 21.9203 19.2196C21.9203 19.2088 21.9095 19.2088 21.9095 19.198L18.7099 11.9531C18.4868 12.0287 18.2385 12.0719 17.9937 12.0719C17.749 12.0719 17.5115 12.0287 17.2883 11.9531L14.078 19.198C14.078 19.2088 14.0672 19.2088 14.0672 19.2196C14.0564 19.2412 14.0456 19.2628 14.0348 19.2736C14.0132 19.306 13.9916 19.3168 13.9592 19.3384C13.9484 19.3492 13.9268 19.3708 13.9052 19.3816C13.8512 19.4139 13.7864 19.4355 13.7109 19.4355C13.6569 19.4355 13.6029 19.4247 13.5489 19.4031C13.5273 19.3923 13.5165 19.3815 13.4949 19.3708C13.4949 19.3708 13.4841 19.3708 13.4733 19.36L6.70353 14.4113C6.54157 14.5948 6.37242 14.7532 6.15647 14.8719C5.94413 15.0015 5.70659 15.0771 5.47266 15.1275L6.67114 26.2053H29.3199L30.522 15.1203Z" fill="#96C0D6"/>
<path d="M29.2374 27.0156H6.75781L6.98455 29.0923H29.0107L29.2374 27.0156Z" fill="#96C0D6"/>
</svg>
