<svg width="24" height="25" viewBox="0 0 24 25" fill="none" xmlns="http://www.w3.org/2000/svg">
<g id="coin" clip-path="url(#clip0_5057_158648)">
<g id="Group 1410103813">
<path id="Union" fill-rule="evenodd" clip-rule="evenodd" d="M3.33904 5.39715L10.1965 1.38044L11.0388 2.81852L13.141 1.58719L14.0484 3.13643L15.7631 2.13211L17.2525 4.67495L18.6347 3.86532L22.5867 10.6122L21.2044 11.4218L22.6951 13.9667L20.9805 14.9711L21.887 16.5187L19.7849 17.7501L20.627 19.1877L13.7695 23.2044L12.9276 21.767L10.7716 23.0299L9.86455 21.4813L8.14981 22.4857L6.65968 19.9417L5.27729 20.7514L1.32536 14.0046L2.70776 13.1948L1.21775 10.6511L2.93249 9.64666L2.02556 8.09832L4.18153 6.83548L3.33904 5.39715Z" fill="#FDDA1E"/>
<rect id="Rectangle 3468563" x="17.4194" y="4.57812" width="1.40999" height="7.88314" transform="rotate(-30.3594 17.4194 4.57812)" fill="#E5B000"/>
<rect id="Rectangle 3468566" x="6.58252" y="20.0615" width="3.20453" height="2.94817" transform="rotate(-30.3594 6.58252 20.0615)" fill="#E5B000"/>
<rect id="Rectangle 3468569" x="4.60669" y="19.7329" width="4.67861" height="1.28181" transform="rotate(-30.3594 4.60669 19.7329)" fill="#E5B000"/>
<rect id="Rectangle 3468570" x="6.51782" y="19.9512" width="3.84544" height="1.28181" transform="rotate(-30.3594 6.51782 19.9512)" fill="#FDDA1E"/>
<path id="Union_2" fill-rule="evenodd" clip-rule="evenodd" d="M13.4402 6.53825L9.7903 8.67618L10.8917 10.5564L10.8928 10.5558L11.6373 11.8269L11.0284 12.1836L11.741 13.4002L11.3542 13.6268L12.4555 15.507L14.2252 14.4705L13.5126 13.2539L14.563 12.6386L13.6558 11.0898L14.2648 10.7331L13.3261 9.13051L14.5416 8.41852L13.4402 6.53825Z" fill="#E5B000"/>
<rect id="Rectangle 3468567" x="9.29077" y="20.6294" width="2.49953" height="2.94817" transform="rotate(-30.3594 9.29077 20.6294)" fill="#E5B000"/>
<rect id="Rectangle 3468568" x="12.7021" y="21.3789" width="2.7559" height="2.0509" transform="rotate(-30.3594 12.7021 21.3789)" fill="#E5B000"/>
<rect id="Rectangle 3468564" x="19.9788" y="11.9922" width="1.40999" height="3.07635" transform="rotate(-30.3594 19.9788 11.9922)" fill="#E5B000"/>
<rect id="Rectangle 3468565" x="19.7639" y="15.6836" width="1.40999" height="1.92272" transform="rotate(-30.3594 19.7639 15.6836)" fill="#E5B000"/>
<rect id="Rectangle 3468553" x="8.99536" y="10.1064" width="1.40999" height="6.40906" transform="rotate(-30.3594 8.99536 10.1064)" fill="#F0A029"/>
<rect id="Rectangle 3468557" x="13.927" y="7.3667" width="1.40999" height="6.40906" transform="rotate(-30.3594 13.927 7.3667)" fill="#F0A029"/>
<rect id="Rectangle 3468544" x="4.04492" y="9.51514" width="1.40999" height="3.14044" transform="rotate(-30.3594 4.04492 9.51514)" fill="#F0A029"/>
<rect id="Rectangle 3468554" x="9.53223" y="8.23242" width="1.40999" height="1.47408" transform="rotate(-30.3594 9.53223 8.23242)" fill="#F0A029"/>
<rect id="Rectangle 3468561" x="13.4521" y="14.9238" width="1.40999" height="1.47408" transform="rotate(-30.3594 13.4521 14.9238)" fill="#F0A029"/>
<rect id="Rectangle 3468555" x="10.0039" y="6.24805" width="1.40999" height="1.98681" transform="rotate(-30.3594 10.0039 6.24805)" fill="#F0A029"/>
<rect id="Rectangle 3468560" x="15.1536" y="15.0405" width="1.40999" height="1.92272" transform="rotate(-30.3594 15.1536 15.0405)" fill="#F0A029"/>
<rect id="Rectangle 3468556" x="11.9656" y="6.80713" width="1.40999" height="1.47408" transform="rotate(-30.3594 11.9656 6.80713)" fill="#F0A029"/>
<rect id="Rectangle 3468558" x="16.3367" y="13.3828" width="1.40999" height="1.47408" transform="rotate(-30.3594 16.3367 13.3828)" fill="#F0A029"/>
<rect id="Rectangle 3468559" x="15.9495" y="13.6094" width="1.40999" height="1.47408" transform="rotate(-30.3594 15.9495 13.6094)" fill="#F0A029"/>
<rect id="Rectangle 3468549" x="8.87109" y="17.7559" width="1.40999" height="3.14044" transform="rotate(-30.3594 8.87109 17.7559)" fill="#F0A029"/>
<rect id="Rectangle 3468545" x="4.48438" y="7.47559" width="1.40999" height="1.92272" transform="rotate(-30.3594 4.48438 7.47559)" fill="#F0A029"/>
<rect id="Rectangle 3468546" x="4.9231" y="5.43604" width="1.40999" height="1.92272" transform="rotate(-30.3594 4.9231 5.43604)" fill="#F0A029"/>
<rect id="Rectangle 3468551" x="13.5403" y="20.146" width="1.40999" height="1.92272" transform="rotate(-30.3594 13.5403 20.146)" fill="#F0A029"/>
<rect id="Rectangle 3468548" x="10.8545" y="2.62939" width="2.49953" height="1.3459" transform="rotate(-30.3594 10.8545 2.62939)" fill="#F0A029"/>
<rect id="Rectangle 3468562" x="13.5317" y="3.14062" width="2.49953" height="1.08954" transform="rotate(-30.3594 13.5317 3.14062)" fill="#F0A029"/>
<rect id="Rectangle 3468547" x="5.65381" y="3.89355" width="5.25543" height="1.53817" transform="rotate(-30.3594 5.65381 3.89355)" fill="#F0A029"/>
<rect id="Rectangle 3468552" x="15.7278" y="21.0923" width="5.25543" height="1.53817" transform="rotate(-30.3594 15.7278 21.0923)" fill="#F0A029"/>
<rect id="Rectangle 3468543" x="4.46997" y="12.9053" width="1.40999" height="6.40906" transform="rotate(-30.3594 4.46997 12.9053)" fill="#F0A029"/>
<rect id="Rectangle 3468571" x="9.80981" y="21.5142" width="3.84544" height="0.704997" transform="rotate(-30.3594 9.80981 21.5142)" fill="#FDDA1E"/>
<rect id="Rectangle 3468550" x="11.6741" y="19.7529" width="1.40999" height="1.92272" transform="rotate(-30.3594 11.6741 19.7529)" fill="#F0A029"/>
</g>
</g>
<defs>
<clipPath id="clip0_5057_158648">
<rect width="24" height="24" fill="white" transform="translate(0 0.5)"/>
</clipPath>
</defs>
</svg>
