<svg width="147" height="112" viewBox="0 0 147 112" fill="none" xmlns="http://www.w3.org/2000/svg">
<path d="M27.2751 5.06372L140.724 70.5637L139.724 72.2958L141.457 73.2958L140.457 75.0278L142.189 76.0278L128.189 100.277L126.457 99.2765L125.457 101.009L123.724 100.009L122.724 101.741L9.27514 36.2406L10.2751 34.5086L8.54309 33.5086L9.54309 31.7765L7.81104 30.7765L21.811 6.52782L23.5431 7.52782L24.5431 5.79577L26.2751 6.79577L27.2751 5.06372Z" fill="#F7F7F7"/>
<path d="M28.2753 3.33179L141.725 68.8318L140.725 70.5638L27.2753 5.06384L28.2753 3.33179Z" fill="#141414"/>
<path d="M24.5432 5.79589L25.5432 4.06384L27.2753 5.06384L26.2753 6.79589L24.5432 5.79589Z" fill="#141414"/>
<path d="M21.8112 6.52794L22.8112 4.79589L24.5432 5.79589L23.5432 7.52794L21.8112 6.52794Z" fill="#141414"/>
<path d="M7.81115 30.7767L6.0791 29.7767L20.0791 5.52794L21.8112 6.52794L7.81115 30.7767Z" fill="#141414"/>
<path d="M8.5432 33.5087L6.81115 32.5087L7.81115 30.7767L9.5432 31.7767L8.5432 33.5087Z" fill="#141414"/>
<path d="M9.27525 36.2408L7.5432 35.2408L8.5432 33.5087L10.2753 34.5087L9.27525 36.2408Z" fill="#141414"/>
<path fill-rule="evenodd" clip-rule="evenodd" d="M122.725 101.741L9.27525 36.2408L8.27525 37.9728L60.6698 68.2228L59.6698 69.9549L61.4018 70.9549L60.4018 72.6869L62.1339 73.6869L61.1339 75.419L62.8659 76.419L63.8659 74.6869L65.598 75.6869L66.598 73.9549L68.33 74.9549L69.33 73.2228L121.725 103.473L122.725 101.741ZM67.598 72.2228L66.598 73.9549L64.8659 72.9549L63.8659 74.6869L62.1339 73.6869L63.1339 71.9549L61.4018 70.9549L62.4018 69.2228L67.598 72.2228Z" fill="#141414"/>
<path d="M125.457 101.009L124.457 102.741L122.725 101.741L123.725 100.009L125.457 101.009Z" fill="#141414"/>
<path d="M128.189 100.277L127.189 102.009L125.457 101.009L126.457 99.2767L128.189 100.277Z" fill="#141414"/>
<path d="M142.189 76.0279L143.921 77.0279L129.921 101.277L128.189 100.277L142.189 76.0279Z" fill="#141414"/>
<path d="M141.457 73.2959L143.189 74.2959L142.189 76.0279L140.457 75.0279L141.457 73.2959Z" fill="#141414"/>
<path d="M141.457 73.2959L142.457 71.5638L140.725 70.5638L139.725 72.2959L141.457 73.2959Z" fill="#141414"/>
<path fill-rule="evenodd" clip-rule="evenodd" d="M140.724 70.5637L27.2751 5.06372L26.2751 6.79577L24.5431 5.79577L23.5431 7.52782L21.811 6.52782L7.81104 30.7765L9.54309 31.7765L8.54309 33.5086L10.2751 34.5086L9.27514 36.2406L61.6697 66.4906L60.6697 68.2227L62.4017 69.2227L61.4017 70.9547L63.1338 71.9547L62.1338 73.6868L63.8658 74.6868L64.8658 72.9547L66.5979 73.9547L67.5979 72.2227L69.3299 73.2227L70.3299 71.4906L122.724 101.741L123.724 100.009L125.457 101.009L126.457 99.2765L128.189 100.277L142.189 76.0278L140.457 75.0278L141.457 73.2958L139.724 72.2958L140.724 70.5637ZM134.26 73.7599L27.7392 12.2599L26.7392 13.9919L25.0072 12.9919L15.0072 30.3124L16.7392 31.3124L15.7392 33.0445L122.26 94.5445L123.26 92.8124L124.992 93.8124L134.992 76.4919L133.26 75.4919L134.26 73.7599Z" fill="#EBEBEB"/>
<path d="M33.9839 26.1607L33.6159 26.7981L32.9092 26.3901L32.5892 26.9443L31.1897 26.1363L31.5097 25.5821L30.8308 25.1901L32.0788 23.0285L32.9101 23.5085L33.3501 22.7464L34.1538 23.2104L34.5618 22.5037L35.3516 22.9597L35.7436 22.2807L39.0692 24.2007L38.6772 24.8797L39.4254 25.3117L33.0894 36.286L32.4936 35.942L32.1256 36.5794L30.1026 35.4114L30.4706 34.774L29.8609 34.422L34.4689 26.4407L33.9839 26.1607ZM44.4321 31.1029L43.2543 30.4229L42.8143 31.185L41.9691 30.697L39.0491 35.7546L39.8943 36.2426L39.4623 36.9909L40.6401 37.6709L41.0721 36.9226L41.9174 37.4106L44.8374 32.353L43.9921 31.865L44.4321 31.1029ZM40.7577 41.5631L36.0466 38.8431L36.4946 38.0672L35.6909 37.6032L36.2029 36.7164L35.4408 36.2764L36.0248 35.2649L35.3181 34.8569L39.2941 27.9702L40.0008 28.3782L40.5768 27.3806L41.3389 27.8206L41.8509 26.9338L42.6546 27.3978L43.1426 26.5525L47.8537 29.2725L47.3657 30.1178L48.1556 30.5738L47.6436 31.4606L48.4195 31.9086L47.8435 32.9062L48.5502 33.3142L44.5742 40.2009L43.8675 39.7929L43.2835 40.8044L42.5076 40.3564L41.9956 41.2432L41.2057 40.7872L40.7577 41.5631ZM54.5077 36.9201L53.3299 36.2401L52.8899 37.0022L52.0447 36.5142L49.1247 41.5718L49.9699 42.0598L49.5379 42.808L50.7157 43.488L51.1477 42.7398L51.993 43.2278L54.913 38.1702L54.0677 37.6822L54.5077 36.9201ZM50.8333 47.3803L46.1222 44.6603L46.5702 43.8843L45.7665 43.4203L46.2785 42.5335L45.5164 42.0935L46.1004 41.082L45.3937 40.674L49.3697 33.7874L50.0764 34.1954L50.6524 33.1977L51.4145 33.6377L51.9265 32.7509L52.7302 33.2149L53.2182 32.3697L57.9293 35.0897L57.4413 35.9349L58.2311 36.3909L57.7191 37.2777L58.4951 37.7257L57.9191 38.7234L58.6258 39.1314L54.6498 46.018L53.9431 45.61L53.3591 46.6215L52.5831 46.1735L52.0711 47.0603L51.2813 46.6043L50.8333 47.3803ZM64.5833 42.7372L63.4055 42.0572L62.9655 42.8193L62.1203 42.3313L59.2003 47.3889L60.0455 47.8769L59.6135 48.6252L60.7913 49.3052L61.2233 48.5569L62.0685 49.0449L64.9885 43.9873L64.1433 43.4993L64.5833 42.7372ZM60.9089 53.1974L56.1977 50.4774L56.6457 49.7015L55.8421 49.2375L56.3541 48.3507L55.592 47.9107L56.176 46.8992L55.4693 46.4912L59.4453 39.6045L60.152 40.0125L60.728 39.0149L61.4901 39.4549L62.0021 38.5681L62.8057 39.0321L63.2937 38.1868L68.0049 40.9068L67.5169 41.7521L68.3067 42.2081L67.7947 43.0949L68.5707 43.5429L67.9947 44.5405L68.7014 44.9485L64.7254 51.8352L64.0187 51.4272L63.4347 52.4387L62.6587 51.9907L62.1467 52.8775L61.3569 52.4215L60.9089 53.1974ZM76.5708 52.6512L74.6725 51.5552L72.9445 54.5482L74.8428 55.6442L75.1708 55.0761L75.6973 55.3801L76.7693 53.5233L76.2428 53.2193L76.5708 52.6512ZM73.4343 47.9397L73.7543 47.3855L80.0036 50.9935L79.6356 51.6309L80.273 51.9989L79.881 52.6778L80.4906 53.0298L80.0506 53.792L80.6049 54.1119L78.1169 58.4213L77.5626 58.1013L77.1306 58.8495L76.521 58.4975L76.129 59.1765L75.4916 58.8085L75.1236 59.4459L71.4516 57.3259L69.6516 60.4436L69.0696 60.1076L68.7496 60.6618L66.7959 59.5338L67.1159 58.9796L66.5201 58.6356L72.8801 47.6197L73.4343 47.9397ZM86.0839 58.975L85.4049 58.583L85.7329 58.0148L84.5551 57.3348L84.2271 57.903L83.562 57.519L81.706 60.7336L82.3711 61.1176L82.0431 61.6857L83.2209 62.3657L83.5489 61.7976L84.2279 62.1896L86.0839 58.975ZM81.2634 54.4922L81.8316 54.8202L82.2716 54.0581L82.8812 54.4101L83.2732 53.7311L83.9106 54.0991L84.2786 53.4617L89.2254 56.3177L88.8574 56.9551L89.4948 57.3231L89.1028 58.0021L89.7124 58.3541L89.2724 59.1162L89.8544 59.4522L86.5264 65.2164L85.9444 64.8804L85.5044 65.6425L84.8948 65.2905L84.5028 65.9695L83.8654 65.6015L83.4974 66.2389L78.5506 63.3829L78.9186 62.7455L78.2812 62.3775L78.6732 61.6985L78.0636 61.3465L78.5036 60.5844L77.9354 60.2564L81.2634 54.4922ZM86.691 68.0827L87.011 67.5285L86.4567 67.2085L90.8727 59.5597L91.427 59.8797L91.747 59.3255L93.7977 60.5095L93.4777 61.0637L94.0458 61.3917L89.6298 69.0405L89.0617 68.7125L88.7417 69.2667L86.691 68.0827ZM95.7374 57.2138L96.2917 57.5338L95.1557 59.5014L94.6014 59.1814L94.2814 59.7357L92.1891 58.5277L92.5091 57.9734L91.9549 57.6534L93.0909 55.6858L93.6451 56.0058L93.9651 55.4515L96.0574 56.6595L95.7374 57.2138ZM95.4943 60.787L96.0486 61.107L96.4166 60.4696L98.2179 61.5096L97.8259 62.1885L98.4633 62.5565L98.8553 61.8776L102.832 64.1736L102.464 64.811L103.102 65.179L102.71 65.8579L103.319 66.2099L102.879 66.972L103.433 67.292L99.2174 74.5943L98.6632 74.2743L98.3432 74.8286L96.3479 73.6766L96.6679 73.1223L96.1136 72.8023L99.5936 66.7748L99.0394 66.4548L99.3834 65.859L97.9284 65.019L97.5844 65.6148L97.0163 65.2868L93.5443 71.3005L92.9901 70.9805L92.6701 71.5347L90.6886 70.3907L91.0086 69.8365L90.4543 69.5165L95.4943 60.787ZM106.742 75.3911L106.454 75.89L107.451 76.466L107.107 77.0618L107.689 77.3978L106.801 78.9358L106.219 78.5998L105.891 79.168L102.51 77.216L102.822 76.6756L102.116 76.2676L102.444 75.6994L101.792 75.3234L105.216 69.3929L103.872 68.6169L104.192 68.0626L103.638 67.7426L104.67 65.9552L105.224 66.2752L105.544 65.7209L106.888 66.4969L108.12 64.363L108.661 64.675L108.981 64.1208L111.156 65.3768L110.836 65.931L111.363 66.235L110.131 68.3689L111.683 69.2649L111.363 69.8192L111.917 70.1392L110.885 71.9266L110.331 71.6066L110.011 72.1609L108.459 71.2649L106.243 75.1031L106.742 75.3911ZM113.429 78.4944L110.921 77.0464L111.185 76.5891L110.547 76.2211L110.851 75.6946L110.241 75.3426L110.577 74.7606L109.982 74.4166L111.694 71.4514L112.289 71.7954L112.641 71.1857L113.251 71.5377L113.563 70.9973L114.201 71.3653L114.473 70.8942L120.098 74.1422L119.802 74.6549L120.357 74.9749L119.453 76.5406L118.898 76.2206L118.586 76.761L114.873 74.617L114.665 74.9773L114.194 74.7053L113.946 75.1348L114.417 75.4068L114.217 75.7533L116.725 77.2013L116.461 77.6585L117.112 78.0345L116.808 78.5611L117.404 78.9051L117.068 79.487L117.664 79.831L115.944 82.8102L115.348 82.4662L114.996 83.0758L114.4 82.7318L114.088 83.2722L113.437 82.8962L113.165 83.3674L107.553 80.1274L107.849 79.6147L107.295 79.2947L108.207 77.715L108.761 78.035L109.073 77.4946L112.773 79.6306L112.981 79.2704L113.452 79.5424L113.7 79.1128L113.229 78.8408L113.429 78.4944Z" fill="black"/>
</svg>
