<svg width="384" height="80" viewBox="0 0 384 80" fill="none" xmlns="http://www.w3.org/2000/svg">
<path d="M12 4H372V8H376V12H380V68H376V72H372V76H12V72H8V68H4V12H8V8H12V4Z" fill="#00B2FF"/>
<path d="M152.728 39.669V38.0847H154.345V33.4638H152.728V31.8465H147.48V39.669H152.728ZM162.167 30.4272V41.1213H160.649V43.0357H158.966V44.719H157.183V46.3363H147.513V53.2676H145.928V54.8849H141.34V53.2676H139.756V26.7965H141.34V25.2122H157.381V26.7965H159.164V28.4798H160.847V30.4272H162.167ZM173.96 42.6726H172.145V53.5647H170.825V54.8849H165.61V53.5647H164.289V32.4736H165.61V31.2524H170.726V32.4736H172.046V34.454H173.234V32.4736H174.521V31.2524H179.703V32.5396H180.991V36.9625H179.604V38.3157H177.69V39.735H175.809V41.1543H173.96V42.6726ZM195.779 40.1311V38.5468H194.393V37.4246H190.927V38.5468H189.541V40.1311H195.779ZM202.842 35.6422V44.653H201.522V45.9732H189.541V47.2605H191.125V48.6137H200.763V50H202.149V53.5977H200.763V54.8849H187.164V53.5317H185.448V52.0794H183.831V50.4951H182.312V35.6422H183.831V34.0579H185.448V32.6386H187.164V31.2524H197.99V32.6386H199.707V34.0579H201.324V35.6422H202.842ZM215.276 45.9072H209.302V44.818H207.783V43.5638H206.331V42.1775H204.912V35.1141H206.331V33.6618H207.783V32.3746H209.302V31.2524H222.702V32.4736H224.022V36.2033H222.702V37.4906H213.856V38.3487H212.734V39.3719H213.856V40.1971H219.831V41.2863H221.382V42.5406H222.801V43.9268H224.22V51.0232H222.801V52.4755H221.382V53.7627H219.831V54.8849H206.463V53.6637H205.143V49.901H206.463V48.6137H215.276V47.7556H216.398V46.7324H215.276V45.9072ZM236.556 45.9072H230.582V44.818H229.063V43.5638H227.611V42.1775H226.192V35.1141H227.611V33.6618H229.063V32.3746H230.582V31.2524H243.982V32.4736H245.302V36.2033H243.982V37.4906H235.137V38.3487H234.014V39.3719H235.137V40.1971H241.111V41.2863H242.662V42.5406H244.081V43.9268H245.501V51.0232H244.081V52.4755H242.662V53.7627H241.111V54.8849H227.743V53.6637H226.423V49.901H227.743V48.6137H236.556V47.7556H237.678V46.7324H236.556V45.9072Z" fill="black"/>
<path fill-rule="evenodd" clip-rule="evenodd" d="M372 4H12V8H8V12H4V68H8V72H12V76H372V72H376V68H380V12H376V8L372 8V4ZM364 16H20V20H16V60H20V64H364V60H368V20H364V16Z" fill="#009CE0"/>
<path fill-rule="evenodd" clip-rule="evenodd" d="M372 0H12V4H8V8H4V12H0V68H4V72H8V76H12V80H372V76H376V72H380V68H384V12H380V8H376V4H372V0ZM372 4V8H376V12H380V68H376V72H372V76H12V72H8V68H4V12H8V8H12V4H372Z" fill="#141414"/>
</svg>
