<svg width="120" height="120" viewBox="0 0 120 120" fill="none" xmlns="http://www.w3.org/2000/svg">
<rect x="1" y="1" width="118" height="118" rx="15" fill="url(#paint0_linear_2814_132414)" fill-opacity="0.3"/>
<rect x="1" y="1" width="118" height="118" rx="15" stroke="url(#paint1_linear_2814_132414)" stroke-width="2"/>
<path fill-rule="evenodd" clip-rule="evenodd" d="M79.3542 33.1252V30.6397H76.9324V28.6003H74.6382V26.9434L45.3619 26.9434V28.6003H43.0676V30.6397H40.6459V33.1252H38.0967V51.6311H40.391V53.9254H49.2494V72.0247H51.5437V73.1475H49.2494V90.7612H51.5437V93.0555H68.9025V90.7612H71.2605V73.1475H68.9025V72.0247H71.0693V67.7547H74.1921V65.7154H76.6775V63.5486H79.2267V61.2543H81.9034V33.1252H79.3542ZM55.762 56.2075H53.2765V67.9975H55.5708V70.2918H64.7479V67.9975H67.0422V63.7276H70.1649V61.6883H72.6504V59.5215H75.1996V57.2272H77.8763V37.1523H75.3271V34.6668H72.9053V32.6275H70.6111V30.9705H49.389V32.6275H47.0947V34.6668H44.673V37.1523H42.1238V47.604H44.4181V49.8982H52.8304V47.604H55.1247V44.29H56.9729V42.5693H62.5811V44.29H64.7479V51.6827H62.5811V53.8495H55.762V56.2075ZM64.8754 77.1746V74.8803H55.5708V77.1746H53.2765V86.7341H55.5708V89.0284H64.8754V86.7341H67.2334V77.1746H64.8754Z" fill="#FAFCC9"/>
<defs>
<linearGradient id="paint0_linear_2814_132414" x1="7.30157e-07" y1="5.5" x2="120" y2="115.5" gradientUnits="userSpaceOnUse">
<stop stop-color="#FFFDC9"/>
<stop offset="0.49" stop-color="#96E6D8"/>
<stop offset="1" stop-color="#7DABF1"/>
</linearGradient>
<linearGradient id="paint1_linear_2814_132414" x1="7.30157e-07" y1="5.5" x2="120" y2="115.5" gradientUnits="userSpaceOnUse">
<stop stop-color="#FFFDC9"/>
<stop offset="0.49" stop-color="#96E6D8"/>
<stop offset="1" stop-color="#7DABF1"/>
</linearGradient>
</defs>
</svg>
