<svg xmlns="http://www.w3.org/2000/svg" fill="none" overflow="visible">
  <style>
    @keyframes move-1 {
      0.0% {
        transform: translate(45%, 42%) rotate(0deg) scaleX(1);
      }
      0.01% {
        transform: translate(47%, 42%) rotate(0deg) scaleX(-1);
      }
      5.0% {
        transform: translate(44%, 41%) rotate(0deg) scaleX(-1);
      }
      5.01% {
        transform: translate(42%, 41%) rotate(0deg) scaleX(1);
      }
      10.0% {
        transform: translate(52%, 77%) rotate(-1deg) scaleX(1);
      }
      12.0% {
        transform: translate(72%, 64%) rotate(2deg) scaleX(1);
      }
      12.01% {
        transform: translate(74%, 64%) rotate(2deg) scaleX(-1);
      }
      15.0% {
        transform: translate(45%, 75%) rotate(0deg) scaleX(-1);
      }
      17.0% {
        transform: translate(13%, 72%) rotate(0deg) scaleX(-1);
      }
      17.01% {
        transform: translate(11%, 72%) rotate(0deg) scaleX(1);
      }
      22.0% {
        transform: translate(33%, 73%) rotate(-3deg) scaleX(1);
      }
      22.01% {
        transform: translate(35%, 73%) rotate(-3deg) scaleX(-1);
      }
      24.0% {
        transform: translate(23%, 37%) rotate(1deg) scaleX(-1);
      }
      24.01% {
        transform: translate(21%, 37%) rotate(1deg) scaleX(1);
      }
      28.0% {
        transform: translate(30%, 52%) rotate(-2deg) scaleX(1);
      }
      30.0% {
        transform: translate(35%, 51%) rotate(2deg) scaleX(1);
      }
      30.01% {
        transform: translate(37%, 51%) rotate(2deg) scaleX(-1);
      }
      33.0% {
        transform: translate(10%, 29%) rotate(0deg) scaleX(-1);
      }
      33.01% {
        transform: translate(8%, 29%) rotate(0deg) scaleX(1);
      }
      37.0% {
        transform: translate(36%, 67%) rotate(-2deg) scaleX(1);
      }
      37.01% {
        transform: translate(38%, 67%) rotate(-2deg) scaleX(-1);
      }
      39.0% {
        transform: translate(16%, 72%) rotate(0deg) scaleX(-1);
      }
      39.01% {
        transform: translate(14%, 72%) rotate(0deg) scaleX(1);
      }
      44.0% {
        transform: translate(20%, 47%) rotate(1deg) scaleX(1);
      }
      49.0% {
        transform: translate(27%, 76%) rotate(-1deg) scaleX(1);
      }
      49.01% {
        transform: translate(29%, 76%) rotate(-1deg) scaleX(-1);
      }
      51.0% {
        transform: translate(13%, 70%) rotate(0deg) scaleX(-1);
      }
      51.01% {
        transform: translate(11%, 70%) rotate(0deg) scaleX(1);
      }
      56.0% {
        transform: translate(40%, 37%) rotate(2deg) scaleX(1);
      }
      60.0% {
        transform: translate(47%, 64%) rotate(-1deg) scaleX(1);
      }
      60.01% {
        transform: translate(49%, 64%) rotate(-1deg) scaleX(-1);
      }
      65.0% {
        transform: translate(33%, 73%) rotate(0deg) scaleX(-1);
      }
      65.01% {
        transform: translate(31%, 73%) rotate(0deg) scaleX(1);
      }
      67.0% {
        transform: translate(34%, 58%) rotate(1deg) scaleX(1);
      }
      67.01% {
        transform: translate(36%, 58%) rotate(1deg) scaleX(-1);
      }
      69.0% {
        transform: translate(24%, 21%) rotate(1deg) scaleX(-1);
      }
      71.0% {
        transform: translate(13%, 28%) rotate(0deg) scaleX(-1);
      }
      71.01% {
        transform: translate(11%, 28%) rotate(0deg) scaleX(1);
      }
      73.0% {
        transform: translate(37%, 66%) rotate(-2deg) scaleX(1);
      }
      77.0% {
        transform: translate(58%, 59%) rotate(2deg) scaleX(1);
      }
      77.01% {
        transform: translate(60%, 59%) rotate(2deg) scaleX(-1);
      }
      79.0% {
        transform: translate(37%, 23%) rotate(1deg) scaleX(-1);
      }
      81.0% {
        transform: translate(15%, 31%) rotate(0deg) scaleX(-1);
      }
      86.0% {
        transform: translate(13%, 64%) rotate(-1deg) scaleX(-1);
      }
      86.01% {
        transform: translate(11%, 64%) rotate(-1deg) scaleX(1);
      }
      88.0% {
        transform: translate(49%, 73%) rotate(-2deg) scaleX(1);
      }
      92.0% {
        transform: translate(64%, 34%) rotate(1deg) scaleX(1);
      }
      92.01% {
        transform: translate(66%, 34%) rotate(1deg) scaleX(-1);
      }
      97.0% {
        transform: translate(33%, 36%) rotate(0deg) scaleX(-1);
      }
      97.01% {
        transform: translate(31%, 36%) rotate(0deg) scaleX(1);
      }
      100.0% {
        transform: translate(70%, 45%) rotate(-2deg) scaleX(1);
      }
    }
    #little-chick-1 {
      animation-name: move-1;
      animation-duration: 180s;
      animation-iteration-count: 1;
      animation-fill-mode: forwards;
    }
    @keyframes reverse-flip-1 {
      0.0% {
        transform-origin: 16px 0px;
        transform: scaleX(1);
      }
      0.01% {
        transform-origin: 16px 0px;
        transform: scaleX(-1);
      }
      5.0% {
        transform-origin: 16px 0px;
        transform: scaleX(-1);
      }
      5.01% {
        transform-origin: 16px 0px;
        transform: scaleX(1);
      }
      10.0% {
        transform-origin: 16px 0px;
        transform: scaleX(1);
      }
      12.0% {
        transform-origin: 16px 0px;
        transform: scaleX(1);
      }
      12.01% {
        transform-origin: 16px 0px;
        transform: scaleX(-1);
      }
      15.0% {
        transform-origin: 16px 0px;
        transform: scaleX(-1);
      }
      17.0% {
        transform-origin: 16px 0px;
        transform: scaleX(-1);
      }
      17.01% {
        transform-origin: 16px 0px;
        transform: scaleX(1);
      }
      22.0% {
        transform-origin: 16px 0px;
        transform: scaleX(1);
      }
      22.01% {
        transform-origin: 16px 0px;
        transform: scaleX(-1);
      }
      24.0% {
        transform-origin: 16px 0px;
        transform: scaleX(-1);
      }
      24.01% {
        transform-origin: 16px 0px;
        transform: scaleX(1);
      }
      28.0% {
        transform-origin: 16px 0px;
        transform: scaleX(1);
      }
      30.0% {
        transform-origin: 16px 0px;
        transform: scaleX(1);
      }
      30.01% {
        transform-origin: 16px 0px;
        transform: scaleX(-1);
      }
      33.0% {
        transform-origin: 16px 0px;
        transform: scaleX(-1);
      }
      33.01% {
        transform-origin: 16px 0px;
        transform: scaleX(1);
      }
      37.0% {
        transform-origin: 16px 0px;
        transform: scaleX(1);
      }
      37.01% {
        transform-origin: 16px 0px;
        transform: scaleX(-1);
      }
      39.0% {
        transform-origin: 16px 0px;
        transform: scaleX(-1);
      }
      39.01% {
        transform-origin: 16px 0px;
        transform: scaleX(1);
      }
      44.0% {
        transform-origin: 16px 0px;
        transform: scaleX(1);
      }
      49.0% {
        transform-origin: 16px 0px;
        transform: scaleX(1);
      }
      49.01% {
        transform-origin: 16px 0px;
        transform: scaleX(-1);
      }
      51.0% {
        transform-origin: 16px 0px;
        transform: scaleX(-1);
      }
      51.01% {
        transform-origin: 16px 0px;
        transform: scaleX(1);
      }
      56.0% {
        transform-origin: 16px 0px;
        transform: scaleX(1);
      }
      60.0% {
        transform-origin: 16px 0px;
        transform: scaleX(1);
      }
      60.01% {
        transform-origin: 16px 0px;
        transform: scaleX(-1);
      }
      65.0% {
        transform-origin: 16px 0px;
        transform: scaleX(-1);
      }
      65.01% {
        transform-origin: 16px 0px;
        transform: scaleX(1);
      }
      67.0% {
        transform-origin: 16px 0px;
        transform: scaleX(1);
      }
      67.01% {
        transform-origin: 16px 0px;
        transform: scaleX(-1);
      }
      69.0% {
        transform-origin: 16px 0px;
        transform: scaleX(-1);
      }
      71.0% {
        transform-origin: 16px 0px;
        transform: scaleX(-1);
      }
      71.01% {
        transform-origin: 16px 0px;
        transform: scaleX(1);
      }
      73.0% {
        transform-origin: 16px 0px;
        transform: scaleX(1);
      }
      77.0% {
        transform-origin: 16px 0px;
        transform: scaleX(1);
      }
      77.01% {
        transform-origin: 16px 0px;
        transform: scaleX(-1);
      }
      79.0% {
        transform-origin: 16px 0px;
        transform: scaleX(-1);
      }
      81.0% {
        transform-origin: 16px 0px;
        transform: scaleX(-1);
      }
      86.0% {
        transform-origin: 16px 0px;
        transform: scaleX(-1);
      }
      86.01% {
        transform-origin: 16px 0px;
        transform: scaleX(1);
      }
      88.0% {
        transform-origin: 16px 0px;
        transform: scaleX(1);
      }
      92.0% {
        transform-origin: 16px 0px;
        transform: scaleX(1);
      }
      92.01% {
        transform-origin: 16px 0px;
        transform: scaleX(-1);
      }
      97.0% {
        transform-origin: 16px 0px;
        transform: scaleX(-1);
      }
      97.01% {
        transform-origin: 16px 0px;
        transform: scaleX(1);
      }
      100.0% {
        transform-origin: 16px 0px;
        transform: scaleX(1);
      }
    }
    #contributions-wrap-1,
    #level-tag-wrap-1,
    #level-wrap-1,
    #username-tag-wrap-1,
    #username-wrap-1 {
      animation-name: reverse-flip-1;
      animation-duration: 180s;
      animation-iteration-count: 1;
      animation-fill-mode: forwards;
    }

    @keyframes little-chick-move-head {
      0% {
        -webkit-transform: translate(6px, -2px) rotate(0deg);
        -ms-transform: translate(6px, -2px) rotate(0deg);
        -o-transform: translate(6px, -2px) rotate(0deg);
        -moz-transform: translate(6px, -2px) rotate(0deg);
        transform: translate(6px, -2px) rotate(0deg);
      }
      50% {
        -webkit-transform: translate(8px, -2.2px) rotate(21deg);
        -ms-transform: translate(8px, -2.2px) rotate(21deg);
        -o-transform: translate(8px, -2.2px) rotate(21deg);
        -moz-transform: translate(8px, -2.2px) rotate(21deg);
        transform: translate(8px, -2.2px) rotate(21deg);
      }
      100% {
        -webkit-transform: translate(6px, -2px) rotate(0deg);
        -ms-transform: translate(6px, -2px) rotate(0deg);
        -o-transform: translate(6px, -2px) rotate(0deg);
        -moz-transform: translate(6px, -2px) rotate(0deg);
        transform: translate(6px, -2px) rotate(0deg);
      }
    }

    @keyframes little-chick-move-leg {
      0% {
        -webkit-transform: translate(2px, 6px) rotate(0deg);
        -ms-transform: translate(2px, 6px) rotate(0deg);
        -o-transform: translate(2px, 6px) rotate(0deg);
        -moz-transform: translate(2px, 6px) rotate(0deg);
        transform: translate(2px, 6px) rotate(0deg);
      }
      50% {
        -webkit-transform: translate(2px, 6px) rotate(3deg);
        -ms-transform: translate(2px, 6px) rotate(3deg);
        -o-transform: translate(2px, 6px) rotate(3deg);
        -moz-transform: translate(2px, 6px) rotate(3deg);
        transform: translate(2px, 6px) rotate(3deg);
      }
      100% {
        -webkit-transform: translate(2px, 6px) rotate(0deg);
        -ms-transform: translate(2px, 6px) rotate(0deg);
        -o-transform: translate(2px, 6px) rotate(0deg);
        -moz-transform: translate(2px, 6px) rotate(0deg);
        transform: translate(2px, 6px) rotate(0deg);
      }
    }

    #little-chick-head {
      animation-name: little-chick-move-head;
      animation-duration: 1s;
      animation-iteration-count: infinite;
    }

    #little-chick-leg {
      animation-name: little-chick-move-leg;
      animation-duration: 0.5s;
      animation-iteration-count: 360;
      animation-timing-function: ease-in;
    }
  </style>

  <g id="little-chick-1" transform="translate(-100, 100)">
    <g id="contributions-wrap-1">
      <g id="contributions" transform="translate(-20, -35)" style="display: default">
        <g id="contribution-tag" transform="translate(-3, -1)">
          <rect x="3" width="77" height="19" fill="white" />
          <rect x="1" y="1.26669" width="81" height="16.4667" fill="white" />
          <rect y="2.53333" width="83" height="13.9333" fill="white" />
        </g>
        <path
          d="M1 2.75H4V3.5H4.75V4.25H3.25V3.5H1.75V7.25H3.25V6.5H4.75V7.25H4V8H1V7.25H0.25V3.5H1V2.75ZM7 2.75H10V3.5H10.75V7.25H10V8H7V7.25H6.25V3.5H7V2.75ZM9.25 7.25V3.5H7.75V7.25H9.25ZM16 3.5H16.75V8H15.25V3.5H13.75V8H12.25V2.75H16V3.5ZM19 1.25H20.5V2.75H22.75V3.5H20.5V7.25H22.75V8H19.75V7.25H19V3.5H18.25V2.75H19V1.25ZM24.25 2.75H25.75V4.25H26.5V5H25.75V8H24.25V2.75ZM28.75 2.75V4.25H26.5V3.5H27.25V2.75H28.75ZM33.25 2H31.75V0.5H33.25V2ZM33.25 7.25H34.75V8H30.25V7.25H31.75V3.5H30.25V2.75H33.25V7.25ZM40 3.5H40.75V7.25H40V8H36.25V1.25H37.75V2.75H40V3.5ZM39.25 7.25V3.5H37.75V7.25H39.25ZM45.25 2.75H46.75V8H43V7.25H42.25V2.75H43.75V7.25H45.25V2.75ZM49 1.25H50.5V2.75H52.75V3.5H50.5V7.25H52.75V8H49.75V7.25H49V3.5H48.25V2.75H49V1.25ZM57.25 2H55.75V0.5H57.25V2ZM57.25 7.25H58.75V8H54.25V7.25H55.75V3.5H54.25V2.75H57.25V7.25ZM61 2.75H64V3.5H64.75V7.25H64V8H61V7.25H60.25V3.5H61V2.75ZM63.25 7.25V3.5H61.75V7.25H63.25ZM70 3.5H70.75V8H69.25V3.5H67.75V8H66.25V2.75H70V3.5ZM73 5H72.25V3.5H73V2.75H76.75V3.5H73.75V5H76V5.75H76.75V7.25H76V8H72.25V7.25H75.25V5.75H73V5Z"
          fill="black"
        />
        <svg
          xmlns="http://www.w3.org/2000/svg"
          width="600"
          height="300"
          viewBox="0 0 200 100"
          fill="none"
          overflow="visible"
        >
          <g id="contribution" transform="translate(8.8, 3.5)">
            <g id="level0" transform="translate(0.0, -1.0)">
              <path
                d="M0.5 1.25H0.75V0.75H1.5V1H1.25V1.25H1V1.5H1.5V1.75H1.75V2.75H1.5V3H0.5V2.75H0.25V1.5H0.5V1.25ZM1.25 2.75V1.75H0.75V2.75H1.25Z"
                fill="black"
              />
            </g>
            <g id="level1" transform="translate(2.0, -1.0)">
              <path
                d="M1 2.5H1.25V2H0.25V0.75H1.75V1H0.75V1.75H1.5V2H1.75V2.5H1.5V2.75H1.25V3H0.25V2.75H1V2.5Z"
                fill="black"
              />
            </g>
            <g id="level2" transform="translate(4.0, -1.0)">
              <path
                d="M1 2.5H1.25V2H0.25V0.75H1.75V1H0.75V1.75H1.5V2H1.75V2.5H1.5V2.75H1.25V3H0.25V2.75H1V2.5Z"
                fill="black"
              />
            </g>
            <g id="level3" transform="translate(6.0, -1.0)">
              <path
                d="M0.75 2.75H1.25V2H0.75V1.75H1.25V1H0.75V1.5H0.25V1H0.5V0.75H1.5V1H1.75V1.75H1.5V2H1.75V2.75H1.5V3H0.5V2.75H0.25V2.25H0.75V2.75Z"
                fill="black"
              />
            </g>
          </g>
        </svg>
      </g>
    </g>

    <g id="username-tag-wrap-1">
      <g id="username-tag" transform="translate(0, -22.5)" style="display: none">
        <rect x="3" width="77" height="9" fill="white" />
        <rect x="1" y="0.600006" width="81" height="7.8" fill="white" />
        <rect y="1.20001" width="83" height="6.6" fill="white" />
      </g>
    </g>

    <g id="username-wrap-1">
      <g id="username" transform="translate(0, -22)" style="display: none">
        <svg
          xmlns="http://www.w3.org/2000/svg"
          width="600"
          height="300"
          viewBox="0 0 2400 1200"
          fill="none"
          overflow="visible"
        >
          <g id="level0" transform="translate(14.0, -1.0)">
            <svg xmlns="http://www.w3.org/2000/svg" width="20" height="30" viewBox="0 0 20 30" fill="none">
              <path
                d="M13.25 0.75H19.75V30H3.5V26.75H0.25V10.5H3.5V7.25H13.25V0.75ZM13.25 26.75V10.5H6.75V26.75H13.25Z"
                fill="black"
              />
            </svg>
          </g>
          <g id="level1" transform="translate(39.0, -1.0)">
            <g transform="translate(0, 7)">
              <path
                d="M0.25 3.5H3.5V0.25H16.5V3.5H19.75V13.25H6.75V19.75H16.5V23H3.5V19.75H0.25V3.5ZM13.25 10V3.5H6.75V10H13.25Z"
                fill="black"
              />
            </g>
          </g>
          <g id="level2" transform="translate(64.0, -1.0)">
            <g transform="translate(0, 7)">
              <path
                d="M3.5 16.5H0.25V0.25H6.75V16.5H13.25V0.25H19.75V16.5H16.5V19.75H13.25V23H6.75V19.75H3.5V16.5Z"
                fill="black"
              />
            </g>
          </g>
          <g id="level3" transform="translate(89.0, -1.0)">
            <g transform="translate(0, 7)">
              <path
                d="M3.5 13.25H6.75V10H3.5V6.75H0.25V0.25H6.75V6.75H13.25V0.25H19.75V6.75H16.5V10H13.25V13.25H16.5V16.5H19.75V23H13.25V16.5H6.75V23H0.25V16.5H3.5V13.25Z"
                fill="black"
              />
            </g>
          </g>
          <g id="level4" transform="translate(114.0, -1.0)">
            <svg xmlns="http://www.w3.org/2000/svg" width="20" height="30" viewBox="0 0 20 30" fill="none">
              <path
                d="M16.5 10.5H19.75V26.75H16.5V30H0.25V0.75H6.75V7.25H16.5V10.5ZM13.25 26.75V10.5H6.75V26.75H13.25Z"
                fill="black"
              />
            </svg>
          </g>
        </svg>
      </g>
    </g>

    <g id="level-tag-wrap-1">
      <g id="level-tag" transform="translate(-23, -14)" style="display: default">
        <rect x="3" width="77" height="9" fill="white" />
        <rect x="1" y="0.600006" width="81" height="7.8" fill="white" />
        <rect y="1.20001" width="83" height="6.6" fill="white" />
      </g>
    </g>

    <g id="level-wrap-1">
      <svg
        xmlns="http://www.w3.org/2000/svg"
        width="600"
        height="300"
        viewBox="0 0 200 100"
        fill="none"
        overflow="visible"
      >
        <g id="level" transform="translate(-8, -4)">
          <g transform="translate(10, -0.05)">
            <path
              d="M0.21875 0.03125H0.65625V1.78125H1.53125V2H0.21875V0.03125ZM2.1875 1.5625H1.96875V0.46875H2.40625V1.5625H2.84375V0.46875H3.28125V1.5625H3.0625V1.78125H2.84375V2H2.40625V1.78125H2.1875V1.5625Z"
              fill="black"
            />
          </g>
          <g id="level0" transform="translate(14.0, -1.0)">
            <path
              d="M1 1.75H1.25V1H0.75V1.5H0.25V1H0.5V0.75H1.5V1H1.75V1.75H1.5V2H1.25V2.25H1V2.5H0.75V2.75H1.75V3H0.25V2.5H0.5V2.25H0.75V2H1V1.75Z"
              fill="black"
            />
          </g>
          <g id="level1" transform="translate(16.0, -1.0)">
            <path
              d="M0.5 0.75H1.5V1H1.75V2.75H1.5V3H0.5V2.75H0.25V1H0.5V0.75ZM1 2V2.5H0.75V2.75H1.25V1.75H1V1.25H1.25V1H0.75V2H1Z"
              fill="black"
            />
          </g>
        </g>
      </svg>
    </g>

    <svg
      xmlns="http://www.w3.org/2000/svg"
      width="600"
      height="300"
      viewBox="0 0 300 150"
      fill="none"
      overflow="visible"
      id="character"
    >
      <g id="little-chick-shadow" transform="translate(-2, 2)">
        <rect
          width="12"
          height="3"
          transform="matrix(0.707107 0.707107 0.707107 -0.707107 1.41422 2.12132)"
          fill="#6F6F6F"
          fill-opacity="0.1"
        />
        <rect
          width="10"
          height="1"
          transform="matrix(0.707107 0.707107 0.707107 -0.707107 1.41422 3.53553)"
          fill="#6F6F6F"
          fill-opacity="0.1"
        />
        <rect
          width="8"
          height="1"
          transform="matrix(0.707107 0.707107 0.707107 -0.707107 1.41422 4.94975)"
          fill="#6F6F6F"
          fill-opacity="0.1"
        />
      </g>

      <g id="little-chick-leg" transform="translate(2, 6)">
        <rect width="2" height="2" fill="#FF6F0F" />
        <rect x="1" y="1" width="2" height="1" fill="#FF6F0F" />
      </g>

      <g id="little-chick-body">
        <rect width="6" height="1" transform="matrix(-1 0 0 1 7 4)" fill="#FFD600" />
        <rect x="3" y="5" width="5" height="2" fill="white" />
        <rect x="3" y="5" width="5" height="2" fill="#FFD600" />
        <rect width="9" height="3" transform="matrix(-1 0 0 1 12 4)" fill="#FFD600" />
        <rect width="6" height="1" transform="matrix(-1 0 0 1 11 8)" fill="#FFD600" />
        <rect width="7" height="1" transform="matrix(-1 0 0 1 11 7)" fill="#FFD600" />
        <rect width="4" height="1" transform="matrix(-1 0 0 1 10 9)" fill="#FFD600" />
        <rect width="6" height="1" transform="matrix(-1 0 0 1 7 1)" fill="#FFD600" />
        <rect width="1" height="1" transform="matrix(-1 0 0 1 3 5)" fill="#FFD600" />
        <rect width="3" height="1" transform="matrix(-1 0 0 1 5 0)" fill="#FFD600" />
        <rect width="7" height="2" transform="matrix(-1 0 0 1 7 2)" fill="#FFD600" />
        <rect x="1" y="2" width="5" height="2" fill="white" />
        <rect x="1" y="2" width="5" height="2" fill="#FFD600" />
        <rect x="2" y="1" width="3" height="2" fill="white" />
        <rect x="2" y="1" width="3" height="2" fill="#FFD600" />
        <rect x="2" y="3" width="5" height="2" fill="white" />
        <rect x="2" y="3" width="5" height="2" fill="#FFD600" />
        <rect x="4" y="2" width="7" height="5" fill="white" />
        <rect x="4" y="2" width="7" height="5" fill="#FFD600" />
        <rect x="5" y="7" width="5" height="1" fill="white" />
        <rect x="5" y="7" width="5" height="1" fill="#FFD600" />
        <rect x="6" y="8" width="4" height="1" fill="white" />
        <rect x="6" y="8" width="4" height="1" fill="#FFD600" />
      </g>

      <g id="little-chick-head" transform="translate(6, -2)">
        <rect x="1" y="1" width="4" height="6" fill="#FFD600" />
        <rect x="2" y="3" width="1" height="1" fill="black" />
        <rect x="4" y="2" width="1" height="1" fill="black" />
        <rect width="1" height="4" transform="matrix(-1 0 0 1 1 1)" fill="#FFD600" />
        <rect width="1" height="1" transform="matrix(-1 0 0 1 5 1)" fill="#FFD600" />
        <rect width="1" height="4" transform="matrix(-1 0 0 1 6 2)" fill="#FFD600" />
        <rect width="3" height="1" transform="matrix(-1 0 0 1 4 0)" fill="#FFD600" />
        <rect x="4" y="4" width="2" height="2" fill="#FF6F0F" />
        <rect x="5" y="5" width="2" height="1" fill="#FF6F0F" />
      </g>

      <g id="1-sunglasses" transform="translate(4.5, -2.5)">
        <rect
          x="2.85233"
          y="4.42468"
          width="3.85714"
          height="0.428571"
          transform="rotate(-13.8199 2.85233 4.42468)"
          fill="black"
        />
        <rect
          x="2.33379"
          y="4.1109"
          width="0.428571"
          height="0.428571"
          transform="rotate(-13.8199 2.33379 4.1109)"
          fill="black"
        />
        <rect
          x="1.81525"
          y="3.79712"
          width="0.428571"
          height="0.428571"
          transform="rotate(-13.8199 1.81525 3.79712)"
          fill="black"
        />
        <rect
          x="1.29671"
          y="3.48331"
          width="0.428571"
          height="0.428571"
          transform="rotate(-13.8199 1.29671 3.48331)"
          fill="black"
        />
        <rect
          x="0.778168"
          y="3.16953"
          width="0.428571"
          height="0.428571"
          transform="rotate(-13.8199 0.778168 3.16953)"
          fill="black"
        />
        <rect
          x="3.37086"
          y="4.73849"
          width="3"
          height="0.428571"
          transform="rotate(-13.8199 3.37086 4.73849)"
          fill="black"
        />
        <rect
          x="3.8894"
          y="5.05228"
          width="2.14286"
          height="0.428571"
          transform="rotate(-13.8199 3.8894 5.05228)"
          fill="black"
        />
        <rect
          x="6.59781"
          y="3.50333"
          width="3.85714"
          height="0.428571"
          transform="rotate(-13.8199 6.59781 3.50333)"
          fill="black"
        />
        <rect
          x="7.11635"
          y="3.81711"
          width="3"
          height="0.428571"
          transform="rotate(-13.8199 7.11635 3.81711)"
          fill="black"
        />
        <rect
          x="7.63489"
          y="4.13092"
          width="2.14286"
          height="0.428571"
          transform="rotate(-13.8199 7.63489 4.13092)"
          fill="black"
        />
        <rect
          x="3.78702"
          y="4.63611"
          width="0.428571"
          height="0.428571"
          transform="rotate(-13.8199 3.78702 4.63611)"
          fill="white"
        />
        <rect
          x="4.30556"
          y="4.94989"
          width="0.428571"
          height="0.428571"
          transform="rotate(-13.8199 4.30556 4.94989)"
          fill="white"
        />
        <rect
          x="7.5325"
          y="3.71475"
          width="0.428571"
          height="0.428571"
          transform="rotate(-13.8199 7.5325 3.71475)"
          fill="white"
        />
        <rect
          x="8.05104"
          y="4.02853"
          width="0.428571"
          height="0.428571"
          transform="rotate(-13.8199 8.05104 4.02853)"
          fill="white"
        />
      </g>
    </svg>
  </g>
</svg>
