<svg width="137" height="23" viewBox="0 0 137 23" fill="none" xmlns="http://www.w3.org/2000/svg">
<g id="Logo">
<g id="Git Animals">
<path d="M3.47184 20.0405V19.0666H2.24304V17.9535H1.09226V16.7609H0V5.45118H1.09226V4.23871H2.24304V3.12563H3.47184V2.17156H12.1319V3.16538H13.1657V5.47105H12.1319V6.38537H5.7929V7.43882H4.60311V14.7931H5.7929V15.8267H9.63533V13.3024H7.97743V12.4477H7.13873V9.94326H7.97743V9.08857H13.0877V9.94326H13.9264V19.0666H12.8536V20.0405H3.47184Z" fill="white"/>
<path d="M18.8387 20.0405H15.952V19.2454H15.1718V8.27364H15.952V7.47858H18.8387V8.27364H19.6384V19.2454H18.8387V20.0405ZM18.8777 1.93304V2.7281H19.6579V5.55056H18.8777V6.34562H15.9325V5.55056H15.1523V2.7281H15.9325V1.93304H18.8777Z" fill="white"/>
<path d="M27.5239 15.449H28.2261V16.1646H29.6304V17.0193H30.4496V19.2256H29.6304V20.0405H24.8713V19.2653H23.8765V18.4504H22.9598V9.94326H21.0678V9.1482H20.2877V6.58414H21.0678V5.78908H22.9598V2.7281H23.7205V1.93304H26.7827V2.7281H27.5239V5.78908H29.7084V6.58414H30.4886V9.1482H29.7084V9.94326H27.5239V15.449Z" fill="white"/>
<path d="M45.995 10.8377V9.06869H44.9808V7.65746H44.025V6.42513H42.6987V7.65746H41.743V9.06869H40.7288V10.8377H45.995ZM45.995 14.8925H40.7288V19.1262H39.773V20.0405H37.1204V19.1262H36.1842V7.39907H37.1984V5.7692H38.2126V4.35797H39.2074V3.20514H40.1631V2.17156H46.5412V3.20514H47.4774V4.35797H48.4721V5.7692H49.5059V7.39907H50.5396V19.1262H49.5839V20.0405H46.9313V19.1262H45.995V14.8925Z" fill="white"/>
<path d="M51.6752 19.2454V6.72327H52.4554V5.80895H54.991V6.7829H55.8882V5.80895H61.486V6.72327H62.3833V7.69722H63.2415V8.79042H64.0217V19.2653H63.2415V20.0604H60.4328V19.2653H59.6526V10.6191H58.8724V9.76437H56.8244V10.6191H56.0247V19.2454H55.2445V20.0405H52.4554V19.2454H51.6752Z" fill="white"/>
<path d="M68.8576 20.0405H65.9709V19.2454H65.1907V8.27364H65.9709V7.47858H68.8576V8.27364H69.6573V19.2454H68.8576V20.0405ZM68.8966 1.93304V2.7281H69.6768V5.55056H68.8966V6.34562H65.9514V5.55056H65.1712V2.7281H65.9514V1.93304H68.8966Z" fill="white"/>
<path d="M88.2704 8.75067H89.0506V19.2454H88.2704V20.0405H85.6373V19.2454H84.8571V10.9172H84.0379V9.94326H82.8871V10.9172H82.0679V19.2454H81.2878V20.0405H78.6741V19.2454H77.8939V10.9172H77.0552V9.94326H75.8849V10.9172H75.0462V19.2454H74.2661V20.0405H71.6329V19.2454H70.8527V6.7034H71.6329V5.78908H74.1295V6.76302H75.0462V5.78908H80.4686V6.76302H81.4633V5.78908H86.515V6.7034H87.4122V7.67734H88.2704V8.75067Z" fill="white"/>
<path d="M98.0364 16.582V14.2564H94.9546V14.9322H94.2525V15.9062H94.9546V16.582H98.0364ZM101.352 7.69722H102.249V19.1659H101.489V20.0405H92.3995V19.2653H91.5218V18.4106H90.6831V17.4566H89.9224V13.4614H90.6831V12.5073H91.5218V11.6526H92.3995V10.8775H98.0364V9.62523H91.6778V8.75067H90.8781V6.66364H91.6778V5.80895H100.494V6.68352H101.352V7.69722Z" fill="white"/>
<path d="M107.148 20.0405H104.164V19.2454H103.384V2.7281H104.164V1.93304H107.148V2.7281H107.929V19.2454H107.148V20.0405Z" fill="white"/>
<path d="M115.131 15.131V14.6341H111.601V13.9782H110.704V13.2229H109.846V12.3881H109.007V8.1345H109.846V7.25994H110.704V6.48475H111.601V5.80895H119.52V6.54438H120.3V8.79042H119.52V9.56561H114.293V10.0824H113.63V10.6986H114.293V11.1955H117.823V11.8514H118.74V12.6067H119.579V13.4415H120.417V17.715H119.579V18.5895H118.74V19.3647H117.823V20.0405H109.924V19.3051H109.144V17.0392H109.924V16.264H115.131V15.7472H115.795V15.131H115.131Z" fill="white"/>
</g>
<g id="Group 2395">
<g id="shadow">
<rect id="Rectangle 858" x="122.359" y="20.5266" width="9.90937" height="1.41562" fill="#2B4447" fill-opacity="0.1"/>
<rect id="Rectangle 859" x="123.122" y="20.1727" width="8.38486" height="0.353906" fill="#2B4447" fill-opacity="0.1"/>
<rect id="Rectangle 861" x="123.122" y="21.9422" width="8.38486" height="0.353906" fill="#2B4447" fill-opacity="0.1"/>
<rect id="Rectangle 860" x="123.884" y="19.8188" width="6.86034" height="0.353906" fill="#2B4447" fill-opacity="0.1"/>
<rect id="Rectangle 862" x="123.884" y="22.2961" width="6.86034" height="0.353906" fill="#2B4447" fill-opacity="0.1"/>
</g>
<g id="leg">
<g id="leg_2">
<rect id="Rectangle 1060" x="123.775" y="15.5719" width="2.83125" height="5.6625" fill="#6DB33F"/>
<rect id="Rectangle 1061" x="128.022" y="15.5719" width="2.83125" height="5.6625" fill="#6DB33F"/>
</g>
</g>
<g id="body">
<g id="body_2">
<rect id="Rectangle 595" x="128.022" y="7.07822" width="1.41562" height="1.41562" fill="#6DB33F"/>
<rect id="Rectangle 602" x="125.19" y="16.9876" width="5.6625" height="1.41562" fill="#6DB33F"/>
<rect id="Rectangle 604" x="123.775" y="8.49384" width="7.07812" height="1.41562" fill="#6DB33F"/>
<rect id="Rectangle 605" x="125.19" y="5.66258" width="4.24687" height="2.83125" fill="#6DB33F"/>
<rect id="Rectangle 603" x="122.359" y="9.90945" width="9.90937" height="5.6625" fill="#6DB33F"/>
<rect id="Rectangle 616" x="123.775" y="11.3251" width="8.49375" height="5.6625" fill="#6DB33F"/>
<rect id="Rectangle 611" x="123.775" y="14.1563" width="1.41562" height="2.83125" fill="#5EA033"/>
<rect id="Rectangle 617" x="122.359" y="12.7407" width="1.41562" height="2.83125" fill="#5EA033"/>
<rect id="Rectangle 615" x="125.19" y="16.9876" width="1.41562" height="1.41562" fill="#5EA033"/>
<rect id="Rectangle 613" x="126.606" y="16.9876" width="4.24687" height="1.41562" fill="#5EA033"/>
<rect id="Rectangle 618" width="1.41562" height="1.41562" transform="matrix(-1 0 0 1 130.853 14.1563)" fill="black" fill-opacity="0.1"/>
</g>
</g>
<g id="head">
<g id="Group 2389">
<g id="head_2">
<g id="Group 2386">
<rect id="Rectangle 1037" x="126.606" y="1.41562" width="7.07812" height="8.49375" fill="#6DB33F"/>
<rect id="Rectangle 1040" x="128.022" y="5.66255" width="4.24687" height="5.6625" fill="#6DB33F"/>
</g>
<rect id="Rectangle 1041" x="125.19" y="2.83125" width="1.41562" height="5.6625" fill="#6DB33F"/>
<rect id="Rectangle 1042" x="126.606" width="5.6625" height="7.07812" fill="#6DB33F"/>
<rect id="Rectangle 1043" x="125.19" y="5.66251" width="1.41562" height="2.83125" fill="black" fill-opacity="0.1"/>
<rect id="Rectangle 1044" x="126.606" y="8.49374" width="1.41562" height="1.41562" fill="black" fill-opacity="0.1"/>
<rect id="Rectangle 1045" x="128.022" y="9.90938" width="4.24687" height="1.41562" fill="black" fill-opacity="0.1"/>
<rect id="Rectangle 1046" x="125.19" y="1.41562" width="1.41562" height="4.24687" fill="#6DB33F"/>
<rect id="Rectangle 1047" x="123.775" y="2.83125" width="1.41562" height="2.83125" fill="#6DB33F"/>
<rect id="Rectangle 1048" x="122.359" y="2.83125" width="1.41562" height="1.41562" fill="#6DB33F"/>
<rect id="Rectangle 1049" x="123.775" y="4.24687" width="1.41562" height="1.41562" fill="black" fill-opacity="0.1"/>
<rect id="Rectangle 1056" x="130.853" y="5.66251" width="4.24687" height="1.41562" fill="#6DB33F"/>
<g id="Group 2387">
<rect id="Rectangle 1057" x="126.606" y="2.83125" width="2.83125" height="2.83125" fill="white"/>
<rect id="Rectangle 1053" x="128.022" y="4.24684" width="1.41562" height="1.41562" fill="black"/>
</g>
<g id="Group 2388">
<rect id="Rectangle 1058" x="130.853" y="2.83125" width="2.83125" height="2.83125" fill="white"/>
<rect id="Rectangle 1054" x="132.269" y="4.24684" width="1.41562" height="1.41562" fill="black"/>
</g>
<rect id="Rectangle 1057_2" x="132.269" y="8.49374" width="1.41562" height="1.41562" fill="black" fill-opacity="0.1"/>
</g>
</g>
<g id="sunguri">
<g id="Group 197">
<rect id="Rectangle 619" x="125.834" y="3.84244" width="4.63295" height="0.606696" fill="black"/>
<rect id="Rectangle 625" x="125.319" y="3.23572" width="0.514773" height="0.606696" fill="black"/>
<rect id="Rectangle 626" x="124.805" y="2.62906" width="0.514773" height="0.606696" fill="black"/>
<rect id="Rectangle 620" x="126.349" y="4.44916" width="3.60341" height="0.606696" fill="black"/>
<rect id="Rectangle 621" x="126.864" y="5.05571" width="2.57386" height="0.606696" fill="black"/>
<rect id="Rectangle 622" x="130.467" y="3.84244" width="4.63295" height="0.606696" fill="black"/>
<rect id="Rectangle 623" x="130.982" y="4.44916" width="3.60341" height="0.606696" fill="black"/>
<rect id="Rectangle 624" x="131.497" y="5.05571" width="2.57386" height="0.606696" fill="black"/>
</g>
<rect id="Rectangle 629" x="126.864" y="4.44916" width="0.514773" height="0.606696" fill="white"/>
<rect id="Rectangle 630" x="127.378" y="5.05571" width="0.514773" height="0.606696" fill="white"/>
<rect id="Rectangle 631" x="131.497" y="4.44916" width="0.514773" height="0.606696" fill="white"/>
<rect id="Rectangle 632" x="132.012" y="5.05571" width="0.514773" height="0.606696" fill="white"/>
</g>
</g>
<g id="Group 2394">
<rect id="Rectangle 1086" x="131.133" y="7.78508" width="5.6625" height="1.41562" transform="rotate(15 131.133 7.78508)" fill="#855319"/>
<rect id="Rectangle 1087" x="135.235" y="8.88423" width="1.41562" height="1.41562" transform="rotate(15 135.235 8.88423)" fill="#A00D15"/>
</g>
</g>
</g>
</svg>
