<svg width="16" height="12" viewBox="0 0 16 12" fill="none" xmlns="http://www.w3.org/2000/svg">
<rect width="8" height="1" transform="matrix(-1 0 0 1 10 10)" fill="#2B4447" fill-opacity="0.1"/>
<rect width="6.76923" height="0.25" transform="matrix(-1 0 0 1 9.38477 9.75)" fill="#2B4447" fill-opacity="0.1"/>
<rect width="6.76923" height="0.25" transform="matrix(-1 0 0 1 9.38477 11)" fill="#2B4447" fill-opacity="0.1"/>
<rect width="5.53846" height="0.25" transform="matrix(-1 0 0 1 8.76953 9.5)" fill="#2B4447" fill-opacity="0.1"/>
<rect width="5.53846" height="0.25" transform="matrix(-1 0 0 1 8.76953 11.25)" fill="#2B4447" fill-opacity="0.1"/>
<rect x="4" y="5.5" width="6" height="4" fill="#F7F7F7"/>
<rect x="2" y="6.5" width="8" height="3" fill="#F7F7F7"/>
<rect x="1" y="7.5" width="8" height="2" fill="#F7F7F7"/>
<rect x="2" y="8.5" width="8" height="2" fill="#F7F7F7"/>
<rect y="7.5" width="8" height="1" fill="#F7F7F7"/>
<rect x="2" y="6.5" width="2" height="1" fill="#765D49"/>
<rect y="7.5" width="3" height="1" fill="#765D49"/>
<rect x="1" y="7.5" width="2" height="1" fill="#765D49"/>
<rect x="2" y="9.5" width="2" height="1" fill="#765D49"/>
<rect x="3" y="6.5" width="2" height="1" fill="#765D49"/>
<rect x="3" y="6.5" width="1" height="2" fill="#765D49"/>
<rect x="2" y="6.5" width="1" height="2" fill="#765D49"/>
<rect x="1" y="8.5" width="1" height="1" fill="#765D49"/>
<rect x="1" y="8.5" width="1" height="1" fill="black" fill-opacity="0.1"/>
<rect y="7.5" width="1" height="1" fill="black" fill-opacity="0.1"/>
<rect x="6" y="9.5" width="1" height="1" fill="black" fill-opacity="0.1"/>
<rect x="8" y="9.5" width="1" height="1" fill="black" fill-opacity="0.1"/>
<rect x="2" y="9.5" width="2" height="1" fill="black" fill-opacity="0.1"/>
<rect x="12" y="1.5" width="2" height="2" fill="#765D49"/>
<rect x="13" y="2.5" width="2" height="2" fill="#765D49"/>
<rect x="12" y="2.5" width="2" height="2" fill="#765D49"/>
<rect x="14" y="3.5" width="2" height="2" fill="#765D49"/>
<rect x="1" y="3.5" width="2" height="2" fill="#765D49"/>
<rect x="2" y="2.5" width="2" height="1" fill="#765D49"/>
<rect x="3" y="1.5" width="2" height="2" fill="#765D49"/>
<rect x="3" y="2.5" width="2" height="2" fill="#765D49"/>
<rect x="5" y="2.5" width="7" height="5" fill="#F7F7F7"/>
<rect x="4" y="3.5" width="9" height="3" fill="#F7F7F7"/>
<rect x="4" y="2.5" width="2" height="2" fill="#F7F7F7"/>
<rect x="6" y="1.5" width="5" height="7" fill="#F7F7F7"/>
<rect x="6" y="1.5" width="5" height="7" fill="#F7F7F7"/>
<rect x="6" y="1.5" width="2" height="1" fill="#765D49"/>
<rect x="5" y="2.5" width="2" height="2" fill="#765D49"/>
<rect x="6" y="1.5" width="2" height="2" fill="#765D49"/>
<rect x="9" y="1.5" width="2" height="1" fill="#765D49"/>
<rect x="10" y="1.5" width="1" height="2" fill="#765D49"/>
<rect x="11" y="2.5" width="1" height="2" fill="#765D49"/>
<rect x="12" y="3.5" width="1" height="2" fill="#765D49"/>
<rect x="10" y="2.5" width="3" height="1" fill="#765D49"/>
<rect x="4" y="2.5" width="2" height="3" fill="#765D49"/>
<rect x="4" y="2.5" width="3" height="1" fill="#765D49"/>
<rect x="7" y="4.5" width="1" height="1" fill="black"/>
<rect x="10" y="4.5" width="1" height="1" fill="black"/>
<rect width="1" height="1" transform="matrix(-1 0 0 1 10 5.5)" fill="black"/>
<rect width="1" height="1" transform="matrix(-1 0 0 1 11 6.5)" fill="black"/>
<rect width="1" height="1" transform="matrix(-1 0 0 1 9 6.5)" fill="black"/>
<rect width="2" height="1" transform="matrix(-1 0 0 1 7 5.5)" fill="#FF778F"/>
<rect width="2" height="1" transform="matrix(-1 0 0 1 13 5.5)" fill="#FF778F"/>
<rect x="5" y="6.5" width="1" height="1" fill="black" fill-opacity="0.05"/>
<rect x="4" y="5.5" width="1" height="1" fill="black" fill-opacity="0.05"/>
<rect x="6" y="7.5" width="2" height="1" fill="black" fill-opacity="0.05"/>
<rect x="7" width="0.8" height="2.25" fill="#FFD600"/>
<rect x="7.7998" y="0.75" width="0.8" height="1.5" fill="#FFD600"/>
<rect x="8.6001" width="0.8" height="2.25" fill="#FFD600"/>
<rect x="9.3999" y="0.75" width="0.8" height="1.5" fill="#FFD600"/>
<rect x="10.2002" width="0.8" height="2.25" fill="#FFD600"/>
</svg>
