<svg width="120" height="120" viewBox="0 0 120 120" fill="none" xmlns="http://www.w3.org/2000/svg">
<g id="empty">
<rect width="120" height="120" rx="16" fill="white" fill-opacity="0.1"/>
<rect x="1" y="1" width="118" height="118" rx="15" stroke="white" stroke-opacity="0.1" stroke-width="2"/>
<g id="question">
<path id="?" d="M70.7745 30.3486V32.0311H73.104V34.1018H75.563V36.6255H78.1514V57.0091H75.4336V59.3387H72.8452V61.5388H70.3215V63.6096H67.1507V67.9451H64.8212V70.2747H55.5029V67.9451H53.1734V55.9738H55.6971V53.5795H62.621V51.3794H64.8212V43.873H62.621V42.1258H56.9265V43.873H55.05V47.2379H52.7204V49.5675H44.1787V47.2379H41.8491V36.6255H44.4375V34.1018H46.8965V32.0311H49.2261V30.3486H70.7745ZM64.9506 74.9338V77.2634H67.3448V86.9699H64.9506V89.2994H55.5029V86.9699H53.1734V77.2634H55.5029V74.9338H64.9506Z" fill="white" fill-opacity="0.05"/>
<path id="? (Stroke)" fill-rule="evenodd" clip-rule="evenodd" d="M72.6231 28.5V30.1825L74.9526 30.1825V32.2532H77.4116V34.7769H80V58.8582H77.2822V61.1878H74.6938V63.3879H72.1701V65.4586H68.9993V69.7942H66.6698V72.1238H53.6538V69.7942H51.3242V54.1251H53.8479V51.7309H60.7719V49.5307H62.972V45.7221H60.7719V43.9749H58.7751V45.7221H56.8985V49.087H54.569V51.4166H42.3296V49.087H40V34.7769H42.5884V32.2532H45.0474V30.1825H47.3769V28.5L72.6231 28.5ZM62.6208 42.1261V43.8732H64.8209V51.3796H62.6208V53.5797H55.6968V55.974H53.1731V67.9453H55.5027V70.2749H64.8209V67.9453H67.1505V63.6098H70.3212V61.5391H72.8449V59.3389H75.4333V57.0094H78.1511V36.6257H75.5627V34.102H73.1038V32.0313H70.7742V30.3489H49.2258V32.0313H46.8962V34.102H44.4373V36.6257H41.8489V47.2382H44.1784V49.5677H52.7201V47.2382H55.0497V43.8732H56.9263V42.1261H62.6208ZM66.7992 73.0852V75.4147H69.1934V88.8189H66.7992V91.1485H53.6538V88.8189H51.3242V75.4147H53.6538V73.0852H66.7992ZM64.9503 74.934H55.5027V77.2636H53.1731V86.9701H55.5027V89.2996H64.9503V86.9701H67.3446V77.2636H64.9503V74.934Z" fill="white" fill-opacity="0.25"/>
</g>
</g>
</svg>
