<svg width="286" height="80" viewBox="0 0 286 80" fill="none" xmlns="http://www.w3.org/2000/svg">
<g clip-path="url(#clip0_3_6095)">
<path fill-rule="evenodd" clip-rule="evenodd" d="M274 0H12V4H8V8H4V12H0V68H4V72H8V76H12V80H274V76H278V72H282V68H286V12H282V8H278V4H274V0ZM274 4V8H278V12H282V68H278V72H274V76H12V72H8V68H4V12H8V8H12V4H274Z" fill="#141414"/>
<path d="M12 4H274V8H278V12H282V68H278V72H274V76H12V72H8V68H4V12H8V8H12V4Z" fill="#FFA109"/>
<path fill-rule="evenodd" clip-rule="evenodd" d="M274 4H12V8H8V12H4V68H8V72H12V76H274V72H278V68H282V12H278V8L274 8V4ZM266 16H20V20H16V60H20V64H266V60H270V20H266V16Z" fill="#F49400"/>
</g>
<defs>
<clipPath id="clip0_3_6095">
<rect width="286" height="80" fill="white"/>
</clipPath>
</defs>
</svg>
