<svg width="1358" height="249" viewBox="0 0 1358 249" fill="none" xmlns="http://www.w3.org/2000/svg">
<path d="M70.7371 57.96V50H143.334V57.96H150.778V65.92H167.531V73.88H175.907V81.84H184.284V89.8H175.907V97.76H167.531V105.72H159.154V113.68H150.778V105.72H142.401V97.76H117.272V89.8H100.519V97.76H75.3889V105.72H58.6358V121.64H50.2593V137.56H41.8827V169.4H50.2593V185.32H58.6358V193.28H67.0123V201.24H75.3889V209.2H134.025V201.24H150.778V185.32H159.154V177.36H100.519V137.56H201.037V201.24H192.66V217.16H184.284V225.12H175.907V233.08H159.154V241.04H142.401V249H67.0123V241.04H50.2593V233.08H41.8827V225.12H25.1296V209.2H16.7531V201.24H8.37654V177.36H0V121.64H8.37654V105.72H16.7531V89.8H25.1296V81.84H33.5062V73.88H50.2593V65.92H58.6358V57.96H70.7371Z" fill="#FFEA7B"/>
<path d="M214.998 65.92V57.96H248.504V65.92H256.881V97.76H248.504V105.72H215.93V97.76H206.621V65.92H214.998Z" fill="#FFEA7B"/>
<path d="M214.998 249V113.68H256.881V249H214.998Z" fill="#FFEA7B"/>
<path d="M290.387 73.88H332.27V113.68H365.776V153.48H332.27V209.2H357.399V217.16H365.776V249H315.516V241.04H298.763V225.12H290.387V153.48H265.257V113.68H290.387V73.88Z" fill="#FFEA7B"/>
<path fill-rule="evenodd" clip-rule="evenodd" d="M491.424 65.92V57.96H533.307V65.92H541.683V81.84H550.06V105.72H558.436V121.64H566.813V145.52H575.189V169.4H583.566V185.32H591.942V209.2H600.319V233.08H608.695V249H558.436V225.12H550.06V201.24H474.671V225.12H466.294V249H416.035V233.08H424.411V209.2H432.788V193.28H441.165V169.4H449.541V145.52H457.918V129.6H466.294V105.72H474.671V81.84H483.047V65.92H491.424ZM533.307 153.48V161.44H491.424V153.48H499.8V137.56H508.177V113.68H516.553V137.56H524.93V153.48H533.307Z" fill="#FFEA7B"/>
<path d="M617.072 113.68V249H658.955V161.44H667.331V153.48H675.708V145.52H692.461V153.48H700.837V161.44H709.214V249H751.097V145.52H742.72V129.6H734.344V121.64H725.967V113.68H667.331V121.64H658.955V113.68H617.072Z" fill="#FFEA7B"/>
<path d="M770.642 65.92V57.96H804.148V65.92H812.525V97.76H802.289V105.72H770.642V97.76H762.265V65.92H770.642Z" fill="#FFEA7B"/>
<path d="M765.058 249V113.68H806.94V249H765.058Z" fill="#FFEA7B"/>
<path d="M820.901 113.68V249H862.784V169.4H871.16V153.48H887.914V145.52H896.29V153.48H904.667V249H946.549V177.36H954.926V153.48H971.679V145.52H980.056V153.48H988.432V161.44H996.809V249H1038.69V145.52H1030.31V129.6H1021.94V121.64H1013.56V113.68H954.926V121.64H946.549V129.6H938.173V121.64H929.796V113.68H871.16V121.64H862.784V113.68H820.901Z" fill="#FFEA7B"/>
<path fill-rule="evenodd" clip-rule="evenodd" d="M1150.38 113.68H1074.99V121.64H1066.61V129.6H1058.24V137.56H1049.86V145.52H1050.79V153.48H1091.74V145.52H1125.25V153.48H1133.63V161.44H1074.99V169.4H1066.61V177.36H1058.24V185.32H1049.86V225.12H1058.24V241.04H1074.99V249H1125.25V241.04H1133.63V249H1175.51V137.56H1167.13V129.6H1158.76V121.64H1150.38V113.68ZM1091.74 217.16H1125.25V209.2H1133.63V193.28H1091.74V217.16Z" fill="#FFEA7B"/>
<path d="M1189.47 249H1231.35V57.96H1189.47V249Z" fill="#FFEA7B"/>
<path d="M1264.86 121.64V113.68H1331.87V121.64H1348.62V129.6H1357V153.48H1315.12V145.52H1289.99V161.44H1323.49V169.4H1340.25V177.36H1357V233.08H1348.62V241.04H1331.87V249H1273.23V241.04H1256.48V233.08H1248.1V225.12H1239.73V209.2H1248.1V201.24H1281.61V209.2H1289.99V217.16H1315.12V209.2H1323.49V201.24H1306.74V193.28H1273.23V185.32H1256.48V177.36H1248.1V129.6H1256.48V121.64H1264.86Z" fill="#FFEA7B"/>
<rect x="446" y="39.6934" width="52.9245" height="13.2311" fill="#E2141F"/>
<rect x="459.223" y="79.3867" width="105.849" height="26.4623" fill="#F5F5F7"/>
<rect x="446.004" y="79.3867" width="105.849" height="13.2311" fill="#E2141F"/>
<rect x="446.004" y="79.3867" width="92.6179" height="13.2311" fill="#E2141F"/>
<rect x="459.223" y="66.1494" width="92.6179" height="13.2311" fill="#E2141F"/>
<rect x="459.223" y="61.752" width="79.3868" height="13.2311" fill="#E2141F"/>
<rect x="459.223" y="52.9307" width="79.3868" height="26.4623" fill="#E2141F"/>
<rect x="459.223" y="26.4561" width="52.9245" height="26.4623" fill="#E2141F"/>
<rect x="459.223" y="13.2373" width="26.4623" height="26.4623" fill="#E2141F"/>
<rect x="446.004" width="26.4623" height="26.4623" fill="#F5F5F7"/>
<rect x="459.223" y="39.6934" width="66.1557" height="26.4623" fill="#E2141F"/>
<rect x="459.219" y="52.9307" width="13.2311" height="13.2311" fill="black" fill-opacity="0.1"/>
<rect x="472.469" y="52.9307" width="13.2311" height="13.2311" fill="black" fill-opacity="0.1"/>
<rect x="459.219" y="66.1494" width="13.2311" height="13.2311" fill="black" fill-opacity="0.1"/>
<rect x="472.469" y="66.1494" width="13.2311" height="13.2311" fill="black" fill-opacity="0.1"/>
<rect x="459.219" y="52.9307" width="13.2311" height="13.2311" fill="black" fill-opacity="0.1"/>
<rect x="472.469" y="52.9307" width="13.2311" height="13.2311" fill="black" fill-opacity="0.1"/>
<rect x="485.693" y="52.9307" width="13.2311" height="13.2311" fill="black" fill-opacity="0.1"/>
<rect x="459.219" y="13.2373" width="13.2311" height="13.2311" fill="black" fill-opacity="0.1"/>
<rect x="498.912" y="52.9307" width="13.2311" height="13.2311" fill="black" fill-opacity="0.1"/>
</svg>
