<svg width="154" height="42" viewBox="0 0 154 42" fill="none" xmlns="http://www.w3.org/2000/svg">
<path d="M8.02764 7.92V7H16.2663V7.92H17.1111V8.84H19.0123V9.76H19.963V10.68H20.9136V11.6H19.963V12.52H19.0123V13.44H18.0617V14.36H17.1111V13.44H16.1605V12.52H13.3086V11.6H11.4074V12.52H8.55556V13.44H6.65432V15.28H5.7037V17.12H4.75309V20.8H5.7037V22.64H6.65432V23.56H7.60494V24.48H8.55556V25.4H15.2099V24.48H17.1111V22.64H18.0617V21.72H11.4074V17.12H22.8148V24.48H21.8642V26.32H20.9136V27.24H19.963V28.16H18.0617V29.08H16.1605V30H7.60494V29.08H5.7037V28.16H4.75309V27.24H2.85185V25.4H1.90123V24.48H0.950617V21.72H0V15.28H0.950617V13.44H1.90123V11.6H2.85185V10.68H3.80247V9.76H5.7037V8.84H6.65432V7.92H8.02764Z" fill="black"/>
<path d="M24.3992 8.84V7.92H28.2016V8.84H29.1523V12.52H28.2016V13.44H24.505V12.52H23.4486V8.84H24.3992Z" fill="black"/>
<path d="M24.3992 30V14.36H29.1523V30H24.3992Z" fill="black"/>
<path d="M32.9547 9.76H37.7078V14.36H41.5103V18.96H37.7078V25.4H40.5597V26.32H41.5103V30H35.8066V29.08H33.9053V27.24H32.9547V18.96H30.1029V14.36H32.9547V9.76Z" fill="black"/>
<path fill-rule="evenodd" clip-rule="evenodd" d="M55.7695 8.84V7.92H60.5226V8.84H61.4732V10.68H62.4239V13.44H63.3745V15.28H64.3251V18.04H65.2757V20.8H66.2263V22.64H67.177V25.4H68.1276V28.16H69.0782V30H63.3745V27.24H62.4239V24.48H53.8683V27.24H52.9177V30H47.214V28.16H48.1646V25.4H49.1152V23.56H50.0658V20.8H51.0165V18.04H51.9671V16.2H52.9177V13.44H53.8683V10.68H54.8189V8.84H55.7695ZM60.5226 18.96V19.88H55.7695V18.96H56.7202V17.12H57.6708V14.36H58.6214V17.12H59.572V18.96H60.5226Z" fill="black"/>
<path d="M70.0288 14.36V30H74.7819V19.88H75.7325V18.96H76.6831V18.04H78.5844V18.96H79.535V19.88H80.4856V30H85.2387V18.04H84.2881V16.2H83.3374V15.28H82.3868V14.36H75.7325V15.28H74.7819V14.36H70.0288Z" fill="black"/>
<path d="M87.4568 8.84V7.92H91.2593V8.84H92.2099V12.52H91.0482V13.44H87.4568V12.52H86.5062V8.84H87.4568Z" fill="black"/>
<path d="M86.823 30V14.36H91.5761V30H86.823Z" fill="black"/>
<path d="M93.1605 14.36V30H97.9136V20.8H98.8642V18.96H100.765V18.04H101.716V18.96H102.667V30H107.42V21.72H108.37V18.96H110.272V18.04H111.222V18.96H112.173V19.88H113.123V30H117.877V18.04H116.926V16.2H115.975V15.28H115.025V14.36H108.37V15.28H107.42V16.2H106.469V15.28H105.519V14.36H98.8642V15.28H97.9136V14.36H93.1605Z" fill="black"/>
<path fill-rule="evenodd" clip-rule="evenodd" d="M130.551 14.36H121.996V15.28H121.045V16.2H120.095V17.12H119.144V18.04H119.25V18.96H123.897V18.04H127.7V18.96H128.65V19.88H121.996V20.8H121.045V21.72H120.095V22.64H119.144V27.24H120.095V29.08H121.996V30H127.7V29.08H128.65V30H133.403V17.12H132.453V16.2H131.502V15.28H130.551V14.36ZM123.897 26.32H127.7V25.4H128.65V23.56H123.897V26.32Z" fill="black"/>
<path d="M134.988 30H139.741V7.92H134.988V30Z" fill="black"/>
<path d="M143.543 15.28V14.36H151.148V15.28H153.049V16.2H154V18.96H149.247V18.04H146.395V19.88H150.198V20.8H152.099V21.72H154V28.16H153.049V29.08H151.148V30H144.494V29.08H142.593V28.16H141.642V27.24H140.691V25.4H141.642V24.48H145.444V25.4H146.395V26.32H149.247V25.4H150.198V24.48H148.296V23.56H144.494V22.64H142.593V21.72H141.642V16.2H142.593V15.28H143.543Z" fill="black"/>
</svg>
