<svg width="12" height="18" viewBox="0 0 12 18" fill="none" xmlns="http://www.w3.org/2000/svg">
<rect y="15.4766" width="10" height="1.36364" fill="#00E4FF" fill-opacity="0.2"/>
<rect x="0.769043" y="15.1357" width="8.46154" height="0.340909" fill="#00E4FF" fill-opacity="0.2"/>
<rect x="0.769043" y="16.8403" width="8.46154" height="0.340909" fill="#00E4FF" fill-opacity="0.2"/>
<rect x="1.53857" y="14.7949" width="6.92308" height="0.340909" fill="#00E4FF" fill-opacity="0.2"/>
<rect x="1.53857" y="17.1812" width="6.92308" height="0.340909" fill="#00E4FF" fill-opacity="0.2"/>
<rect x="6" y="14.2495" width="1.94869" height="1.94869" fill="#363636"/>
<rect x="6.97412" y="15.2236" width="1.94869" height="0.974344" fill="#363636"/>
<rect x="2" y="14.2495" width="1.94869" height="1.94869" fill="#363636"/>
<rect x="2.97412" y="15.2236" width="1.94869" height="0.974344" fill="#363636"/>
<rect x="10.604" y="8.99512" width="0.552189" height="1.65657" transform="rotate(75.5521 10.604 8.99512)" fill="#765D49"/>
<rect x="11.2847" y="8.24951" width="0.552189" height="1.47572" transform="rotate(47.5215 11.2847 8.24951)" fill="#765D49"/>
<rect x="11.2778" y="9.87061" width="0.552189" height="1.47572" transform="rotate(128.781 11.2778 9.87061)" fill="#765D49"/>
<rect x="2.98535" y="2.44092" width="0.422853" height="1.26856" transform="rotate(-73.3185 2.98535 2.44092)" fill="#765D49"/>
<rect x="2.24414" y="2.66064" width="0.422853" height="1.13007" transform="rotate(-101.349 2.24414 2.66064)" fill="#765D49"/>
<rect x="2.89014" y="1.6001" width="0.422853" height="1.13007" transform="rotate(-20.0899 2.89014 1.6001)" fill="#765D49"/>
<rect x="3.97607" y="1.14941" width="0.422853" height="1.26856" transform="rotate(-8.69551 3.97607 1.14941)" fill="#765D49"/>
<rect x="3.46045" y="0.57373" width="0.422853" height="1.13007" transform="rotate(-36.7261 3.46045 0.57373)" fill="#765D49"/>
<rect x="4.69482" y="0.703125" width="0.422853" height="1.13007" transform="rotate(44.533 4.69482 0.703125)" fill="#765D49"/>
<rect x="4" y="3.24951" width="4" height="6" fill="#F7F7F7"/>
<rect width="2" height="4" transform="matrix(-1 0 0 1 5 3.24951)" fill="#F7F7F7"/>
<rect width="2" height="4" transform="matrix(-1 0 0 1 4 4.24951)" fill="#F7F7F7"/>
<rect width="2" height="4" transform="matrix(-1 0 0 1 3 7.24951)" fill="#F7F7F7"/>
<rect width="2" height="4" transform="matrix(-1 0 0 1 4 7.24951)" fill="#F7F7F7"/>
<rect width="2" height="4" transform="matrix(-1 0 0 1 5 8.24951)" fill="#F7F7F7"/>
<rect width="2" height="4" transform="matrix(-1 0 0 1 6 8.24951)" fill="#F7F7F7"/>
<rect width="5" height="4" transform="matrix(-1 0 0 1 10 8.24951)" fill="#F7F7F7"/>
<rect width="5" height="4" transform="matrix(-1 0 0 1 5 9.24951)" fill="#F7F7F7"/>
<rect width="5" height="4" transform="matrix(-1 0 0 1 6 10.2495)" fill="#F7F7F7"/>
<rect width="5" height="4" transform="matrix(-1 0 0 1 9 10.2495)" fill="#F7F7F7"/>
<rect width="5" height="4" transform="matrix(-1 0 0 1 10 9.24951)" fill="#F7F7F7"/>
<rect width="6" height="4" transform="matrix(-1 0 0 1 8 11.2495)" fill="#F7F7F7"/>
<rect width="3" height="1" transform="matrix(-1 0 0 1 8 3.24951)" fill="#F7F7F7"/>
<rect width="2" height="5" transform="matrix(-1 0 0 1 9 4.24951)" fill="#F7F7F7"/>
<rect width="3" height="2" transform="matrix(-1 0 0 1 7 2.24951)" fill="#F7F7F7"/>
<rect x="4.94873" y="5.17236" width="0.974344" height="0.974344" fill="black"/>
<rect x="6.89746" y="4.19824" width="0.974344" height="0.974344" fill="black"/>
<rect y="12.2495" width="2" height="1" fill="black" fill-opacity="0.05"/>
<rect y="11.2495" width="1" height="1" fill="black" fill-opacity="0.05"/>
<rect x="1" y="7.24951" width="1" height="1" fill="black" fill-opacity="0.05"/>
<rect x="2" y="6.24951" width="1" height="1" fill="black" fill-opacity="0.05"/>
<rect x="2" y="5.24951" width="1" height="1" fill="black" fill-opacity="0.05"/>
<rect x="3" y="13.2495" width="1" height="1" fill="black" fill-opacity="0.05"/>
<rect x="4" y="13.2495" width="1" height="1" fill="black" fill-opacity="0.05"/>
<rect x="2" y="12.2495" width="1" height="1" fill="black" fill-opacity="0.05"/>
<rect x="1" y="13.2495" width="2" height="1" fill="black" fill-opacity="0.05"/>
<rect x="2" y="14.2495" width="2" height="1" fill="black" fill-opacity="0.05"/>
<rect x="4" y="14.2495" width="2" height="1" fill="black" fill-opacity="0.05"/>
<rect x="1.93457" y="10.645" width="0.552189" height="1.65657" transform="rotate(-124.624 1.93457 10.645)" fill="#765D49"/>
<rect x="1.55322" y="11.5796" width="0.552189" height="1.47572" transform="rotate(-152.655 1.55322 11.5796)" fill="#765D49"/>
<rect x="1" y="10.0557" width="0.552189" height="1.47572" transform="rotate(-71.3958 1 10.0557)" fill="#765D49"/>
<rect width="1.17048" height="1.75572" transform="matrix(0.999932 -0.0116293 -0.0116293 -0.999932 8.16455 7.93994)" fill="#FF6F0F"/>
<rect width="1.4631" height="2.34096" transform="matrix(0.999932 -0.0116293 -0.0116293 -0.999932 6.99805 8.24609)" fill="#FF6F0F"/>
<rect width="1.4631" height="1.75572" transform="matrix(0.999932 -0.0116293 -0.0116293 -0.999932 6.70166 7.95703)" fill="#FF6F0F"/>
<rect width="1.17048" height="1.17048" transform="matrix(0.999932 -0.0116293 -0.0116293 -0.999932 8.74609 7.64062)" fill="#FF6F0F"/>
<rect width="0.585241" height="0.585241" transform="matrix(0.999932 -0.0116293 -0.0116293 -0.999932 9.62109 7.3374)" fill="#FF6F0F"/>
<rect width="0.292621" height="0.585241" transform="matrix(0.999932 -0.0116293 -0.0116293 -0.999932 7.58057 7.94678)" fill="black" fill-opacity="0.1"/>
<rect width="0.292621" height="0.877862" transform="matrix(0.999932 -0.0116293 -0.0116293 -0.999932 8.15869 7.35449)" fill="black" fill-opacity="0.1"/>
<rect width="0.292621" height="0.585241" transform="matrix(0.999932 -0.0116293 -0.0116293 -0.999932 9.03955 7.63721)" fill="black" fill-opacity="0.1"/>
<rect width="0.292621" height="0.585241" transform="matrix(0.999932 -0.0116293 -0.0116293 -0.999932 9.61816 7.04492)" fill="black" fill-opacity="0.1"/>
<rect width="0.292621" height="0.877862" transform="matrix(0.999932 -0.0116293 -0.0116293 -0.999932 7.27734 7.07227)" fill="black" fill-opacity="0.1"/>
</svg>
