<svg width="110" height="121" viewBox="0 0 110 121" fill="none" xmlns="http://www.w3.org/2000/svg">
<g filter="url(#filter0_d_1_4569)">
<rect x="23.333" y="23.6665" width="63.3333" height="56.6667" fill="white"/>
<rect x="26.667" y="20.3335" width="56.6667" height="63.3333" fill="white"/>
<rect x="26.667" y="20.3335" width="56.6667" height="10" fill="#EBEBEB"/>
<rect x="26.667" y="73.667" width="56.6667" height="10" fill="#EBEBEB"/>
<rect x="26.667" y="70.333" width="10" height="13.3333" fill="#EBEBEB"/>
<rect x="73.333" y="70.333" width="10" height="13.3333" fill="#EBEBEB"/>
<rect x="73.333" y="20.3335" width="10" height="13.3333" fill="#EBEBEB"/>
<rect x="26.667" y="20.3335" width="10" height="13.3333" fill="#EBEBEB"/>
<rect x="76.667" y="27" width="10" height="53.3333" fill="#EBEBEB"/>
<rect x="23.333" y="27" width="10" height="53.3333" fill="#EBEBEB"/>
<rect x="30" y="17" width="50" height="3.33333" fill="#141414"/>
<rect x="30" y="83.667" width="50" height="3.33333" fill="#141414"/>
<rect x="26.667" y="20.3335" width="3.33333" height="3.33333" fill="#141414"/>
<rect x="26.667" y="80.333" width="3.33333" height="3.33333" fill="#141414"/>
<rect x="23.333" y="23.667" width="3.33333" height="3.33333" fill="#141414"/>
<rect x="23.333" y="77" width="3.33333" height="3.33333" fill="#141414"/>
<rect x="20" y="27" width="3.33333" height="50" fill="#141414"/>
<rect x="80" y="20.3335" width="3.33333" height="3.33333" fill="#141414"/>
<rect x="83.333" y="23.667" width="3.33333" height="3.33333" fill="#141414"/>
<rect x="80" y="80.333" width="3.33333" height="3.33333" fill="#141414"/>
<rect x="83.333" y="77" width="3.33333" height="3.33333" fill="#141414"/>
<rect x="86.667" y="27" width="3.33333" height="50" fill="#141414"/>
<rect x="56.667" y="83.667" width="3.33333" height="3.33333" fill="#141414"/>
<rect x="60" y="87" width="3.33333" height="3.33333" fill="#141414"/>
<rect x="63.333" y="87" width="3.33333" height="3.33333" fill="#EBEBEB"/>
<rect x="66.667" y="87" width="3.33333" height="3.33333" fill="#EBEBEB"/>
<rect x="70" y="87" width="3.33333" height="3.33333" fill="#EBEBEB"/>
<rect x="66.667" y="90.333" width="3.33333" height="3.33333" fill="#EBEBEB"/>
<rect x="63.333" y="83.667" width="3.33333" height="3.33333" fill="#EBEBEB"/>
<rect x="66.667" y="83.667" width="3.33333" height="3.33333" fill="#EBEBEB"/>
<rect x="70" y="83.667" width="3.33333" height="3.33333" fill="#EBEBEB"/>
<rect x="73.333" y="83.667" width="3.33333" height="3.33333" fill="#EBEBEB"/>
<rect x="60" y="83.667" width="3.33333" height="3.33333" fill="#EBEBEB"/>
<rect x="63.333" y="90.333" width="3.33333" height="3.33333" fill="#141414"/>
<rect x="66.667" y="93.667" width="3.33333" height="3.33333" fill="#141414"/>
<rect x="70" y="90.333" width="3.33333" height="3.33333" fill="#141414"/>
<rect x="73.333" y="87" width="3.33333" height="3.33333" fill="#141414"/>
<rect x="76.667" y="83.667" width="3.33333" height="3.33333" fill="#141414"/>
<path d="M40.833 49.5H45.833V54.5H40.833V49.5Z" fill="#141414"/>
<path d="M52.4997 49.5H57.4997V54.5H52.4997V49.5Z" fill="#141414"/>
<path d="M69.1663 49.5H64.1663V54.5H69.1663V49.5Z" fill="#141414"/>
</g>
<defs>
<filter id="filter0_d_1_4569" x="0" y="0.333333" width="110" height="120" filterUnits="userSpaceOnUse" color-interpolation-filters="sRGB">
<feFlood flood-opacity="0" result="BackgroundImageFix"/>
<feColorMatrix in="SourceAlpha" type="matrix" values="0 0 0 0 0 0 0 0 0 0 0 0 0 0 0 0 0 0 127 0" result="hardAlpha"/>
<feOffset dy="3.33333"/>
<feGaussianBlur stdDeviation="10"/>
<feComposite in2="hardAlpha" operator="out"/>
<feColorMatrix type="matrix" values="0 0 0 0 0 0 0 0 0 0 0 0 0 0 0 0 0 0 0.2 0"/>
<feBlend mode="multiply" in2="BackgroundImageFix" result="effect1_dropShadow_1_4569"/>
<feBlend mode="normal" in="SourceGraphic" in2="effect1_dropShadow_1_4569" result="shape"/>
</filter>
</defs>
</svg>
