<svg width="110" height="109" viewBox="0 0 110 109" fill="none" xmlns="http://www.w3.org/2000/svg">
<g filter="url(#filter0_d_1_4613)">
<rect x="23.334" y="23.667" width="63.3333" height="56.6667" fill="white"/>
<rect x="26.666" y="20.333" width="56.6667" height="63.3333" fill="#141414"/>
<path d="M47 45H42V50H47V55H52V60H57V55H62V50H67V45H62V50H57V55H52V50H47V45Z" fill="white"/>
<path fill-rule="evenodd" clip-rule="evenodd" d="M26.667 20.333V27H23.334V80.3333H26.667V83.6663L83.3337 83.667L83.334 80.3333H86.667V27H83.334V20.333H26.667ZM33.334 70.333H36.667V73.667H73.334V70.333H76.667V33.6663H73.334V30.333H36.667V33.6663H33.334V70.333Z" fill="#141414"/>
<rect x="30" y="17" width="50" height="3.33333" fill="#141414"/>
<rect x="30" y="83.667" width="50" height="3.33333" fill="#141414"/>
<rect x="26.667" y="20.334" width="3.33333" height="3.33333" fill="#141414"/>
<rect x="26.667" y="80.334" width="3.33333" height="3.33333" fill="#141414"/>
<rect x="23.334" y="23.667" width="3.33333" height="3.33333" fill="#141414"/>
<rect x="23.334" y="77.001" width="3.33333" height="3.33333" fill="#141414"/>
<rect x="20" y="27.001" width="3.33333" height="50" fill="#141414"/>
<rect x="80" y="20.334" width="3.33333" height="3.33333" fill="#141414"/>
<rect x="83.334" y="23.667" width="3.33333" height="3.33333" fill="#141414"/>
<rect x="80" y="80.334" width="3.33333" height="3.33333" fill="#141414"/>
<rect x="83.334" y="77.001" width="3.33333" height="3.33333" fill="#141414"/>
<rect x="86.666" y="27.001" width="3.33333" height="50" fill="#141414"/>
<rect x="56.666" y="83.667" width="3.33333" height="3.33333" fill="#141414"/>
<rect x="76.666" y="83.667" width="3.33333" height="3.33333" fill="#141414"/>
</g>
<defs>
<filter id="filter0_d_1_4613" x="0" y="0.333333" width="110" height="120" filterUnits="userSpaceOnUse" color-interpolation-filters="sRGB">
<feFlood flood-opacity="0" result="BackgroundImageFix"/>
<feColorMatrix in="SourceAlpha" type="matrix" values="0 0 0 0 0 0 0 0 0 0 0 0 0 0 0 0 0 0 127 0" result="hardAlpha"/>
<feOffset dy="3.33333"/>
<feGaussianBlur stdDeviation="10"/>
<feComposite in2="hardAlpha" operator="out"/>
<feColorMatrix type="matrix" values="0 0 0 0 0 0 0 0 0 0 0 0 0 0 0 0 0 0 0.2 0"/>
<feBlend mode="multiply" in2="BackgroundImageFix" result="effect1_dropShadow_1_4613"/>
<feBlend mode="normal" in="SourceGraphic" in2="effect1_dropShadow_1_4613" result="shape"/>
</filter>
</defs>
</svg>
