<svg width="12" height="13" viewBox="0 0 12 13" fill="none" xmlns="http://www.w3.org/2000/svg">
<g id="icon/chervon">
<path id="Union" fill-rule="evenodd" clip-rule="evenodd" d="M4.35962 11.1596C4.10578 11.4135 3.69422 11.4135 3.44038 11.1596C3.18654 10.9058 3.18654 10.4942 3.44038 10.2404L7.18076 6.49999L3.44038 2.75961C3.18654 2.50577 3.18654 2.09421 3.44038 1.84037C3.69422 1.58653 4.10578 1.58653 4.35962 1.84037L8.55592 6.03668C8.55717 6.0379 8.5584 6.03912 8.55963 6.04036C8.67069 6.15141 8.73316 6.29266 8.74704 6.43767C8.75169 6.48621 8.75089 6.53517 8.74465 6.58356C8.72693 6.72107 8.66526 6.854 8.55963 6.95962C8.5584 6.96086 8.55716 6.96208 8.55592 6.96331L4.35962 11.1596Z" fill="white"/>
</g>
</svg>
