<svg width="40" height="40" viewBox="0 0 40 40" fill="none" xmlns="http://www.w3.org/2000/svg">
<rect width="40" height="40" rx="20" fill="white"/>
<rect x="0.5" y="0.5" width="39" height="39" rx="19.5" stroke="black" stroke-opacity="0.1"/>
<path fill-rule="evenodd" clip-rule="evenodd" d="M11.8675 18.8005H25.9035L20.4525 13.3495C19.9835 12.8805 19.9835 12.1205 20.4525 11.6525C20.9215 11.1835 21.6805 11.1835 22.1495 11.6525L29.6495 19.1525C29.6525 19.1545 29.6535 19.1585 29.6565 19.1615C29.7635 19.2705 29.8495 19.3995 29.9085 19.5415C30.0305 19.8355 30.0305 20.1655 29.9085 20.4595C29.8495 20.6025 29.7635 20.7305 29.6565 20.8395C29.6535 20.8425 29.6525 20.8465 29.6495 20.8495L22.1495 28.3495C21.9155 28.5835 21.6085 28.7005 21.3015 28.7005C20.9935 28.7005 20.6865 28.5835 20.4525 28.3495C19.9835 27.8805 19.9835 27.1205 20.4525 26.6525L25.9035 21.2005H11.8675C11.2045 21.2005 10.6675 20.6635 10.6675 20.0005C10.6675 19.3385 11.2045 18.8005 11.8675 18.8005Z" fill="black"/>
</svg>
