<svg width="80" height="13" viewBox="0 0 80 13" fill="none" xmlns="http://www.w3.org/2000/svg">
<g id="Union">
<path d="M4.16529 0.784487V0.307129H8.44007V0.784487H8.87841V1.26185H9.8649V1.7392H10.3581V2.21656H10.8514V2.69392H10.3581V3.17128H9.8649V3.64864H9.37165V4.126H8.87841V3.64864H8.38516V3.17128H6.90543V2.69392H5.91894V3.17128H4.4392V3.64864H3.45271V4.60336H2.95947V5.55807H2.46622V7.46751H2.95947V8.42222H3.45271V8.89958H3.94596V9.37694H4.4392V9.8543H7.89192V9.37694H8.87841V8.42222H9.37165V7.94486H5.91894V5.55807H11.8379V9.37694H11.3446V10.3317H10.8514V10.809H10.3581V11.2864H9.37165V11.7637H8.38516V12.2411H3.94596V11.7637H2.95947V11.2864H2.46622V10.809H1.47973V9.8543H0.98649V9.37694H0.493245V7.94486H0V4.60336H0.493245V3.64864H0.98649V2.69392H1.47973V2.21656H1.97298V1.7392H2.95947V1.26185H3.45271V0.784487H4.16529Z" fill="black"/>
<path d="M12.6599 1.26185V0.784487H14.6329V1.26185H15.1262V3.17128H14.6329V3.64864H12.7149V3.17128H12.1667V1.26185H12.6599Z" fill="black"/>
<path d="M12.6599 12.2411V4.126H15.1262V12.2411H12.6599Z" fill="black"/>
<path d="M17.0992 1.7392H19.5654V4.126H21.5384V6.51279H19.5654V9.8543H21.0451V10.3317H21.5384V12.2411H18.5789V11.7637H17.5924V10.809H17.0992V6.51279H15.6194V4.126H17.0992V1.7392Z" fill="black"/>
<path fill-rule="evenodd" clip-rule="evenodd" d="M28.937 1.26185V0.784487H31.4033V1.26185H31.8965V2.21656H32.3897V3.64864H32.883V4.60336H33.3762V6.03543H33.8695V7.46751H34.3627V8.42222H34.856V9.8543H35.3492V11.2864H35.8425V12.2411H32.883V10.809H32.3897V9.37694H27.9505V10.809H27.4573V12.2411H24.4978V11.2864H24.9911V9.8543H25.4843V8.89958H25.9776V7.46751H26.4708V6.03543H26.964V5.08071H27.4573V3.64864H27.9505V2.21656H28.4438V1.26185H28.937ZM31.4033 6.51279V6.99015H28.937V6.51279H29.4303V5.55807H29.9235V4.126H30.4168V5.55807H30.91V6.51279H31.4033Z" fill="black"/>
<path d="M36.3357 4.126V12.2411H38.8019V6.99015H39.2952V6.51279H39.7884V6.03543H40.7749V6.51279H41.2681V6.99015H41.7614V12.2411H44.2276V6.03543H43.7344V5.08071H43.2411V4.60336H42.7479V4.126H39.2952V4.60336H38.8019V4.126H36.3357Z" fill="black"/>
<path d="M45.3785 1.26185V0.784487H47.3515V1.26185H47.8447V3.17128H47.242V3.64864H45.3785V3.17128H44.8853V1.26185H45.3785Z" fill="black"/>
<path d="M45.0497 12.2411V4.126H47.5159V12.2411H45.0497Z" fill="black"/>
<path d="M48.338 4.126V12.2411H50.8042V7.46751H51.2975V6.51279H52.2839V6.03543H52.7772V6.51279H53.2704V12.2411H55.7367V7.94486H56.2299V6.51279H57.2164V6.03543H57.7096V6.51279H58.2029V6.99015H58.6961V12.2411H61.1624V6.03543H60.6691V5.08071H60.1759V4.60336H59.6826V4.126H56.2299V4.60336H55.7367V5.08071H55.2434V4.60336H54.7502V4.126H51.2975V4.60336H50.8042V4.126H48.338Z" fill="black"/>
<path fill-rule="evenodd" clip-rule="evenodd" d="M67.739 4.126H63.2997V4.60336H62.8065V5.08071H62.3133V5.55807H61.82V6.03543H61.8749V6.51279H64.2862V6.03543H66.2592V6.51279H66.7525V6.99015H63.2997V7.46751H62.8065V7.94486H62.3133V8.42222H61.82V10.809H62.3133V11.7637H63.2997V12.2411H66.2592V11.7637H66.7525V12.2411H69.2187V5.55807H68.7254V5.08071H68.2322V4.60336H67.739V4.126ZM64.2862 10.3317H66.2592V9.8543H66.7525V8.89958H64.2862V10.3317Z" fill="black"/>
<path d="M70.0408 12.2411H72.507V0.784487H70.0408V12.2411Z" fill="black"/>
<path d="M74.48 4.60336V4.126H78.4259V4.60336H79.4124V5.08071H79.9057V6.51279H77.4394V6.03543H75.9597V6.99015H77.9327V7.46751H78.9192V7.94486H79.9057V11.2864H79.4124V11.7637H78.4259V12.2411H74.9732V11.7637H73.9867V11.2864H73.4935V10.809H73.0002V9.8543H73.4935V9.37694H75.4665V9.8543H75.9597V10.3317H77.4394V9.8543H77.9327V9.37694H76.9462V8.89958H74.9732V8.42222H73.9867V7.94486H73.4935V5.08071H73.9867V4.60336H74.48Z" fill="black"/>
</g>
</svg>
