<svg width="345" height="56" viewBox="0 0 345 56" fill="none" xmlns="http://www.w3.org/2000/svg">
<mask id="mask0_1_18" style="mask-type:alpha" maskUnits="userSpaceOnUse" x="0" y="0" width="345" height="56">
<g clip-path="url(#clip0_1_18)">
<path d="M17.9428 3.37932V1.32301H36.3572V3.37932H38.2455V5.43566H42.4949V7.49193H44.6195V9.54825H46.7445V11.6046H44.6195V13.6609H42.4949V15.7172H40.3702V17.7735H38.2455V15.7172H36.1207V13.6609H29.7465V11.6046H25.497V13.6609H19.1227V15.7172H14.8732V19.8299H12.7485V23.9425H10.6237V32.1677H12.7485V36.2803H14.8732V38.3366H16.998V40.393H19.1227V42.4493H33.996V40.393H38.2455V36.2803H40.3702V34.224H25.497V23.9425H50.994V40.393H48.869V44.5058H46.7445V46.5618H44.6195V48.6183H40.3702V50.6744H36.1207V52.7309H16.998V50.6744H12.7485V48.6183H10.6237V46.5618H6.37422V42.4493H4.2495V40.393H2.12475V34.224H0V19.8299H2.12475V15.7172H4.2495V11.6046H6.37422V9.54825H8.49899V7.49193H12.7485V5.43566H14.8732V3.37932H17.9428Z" fill="black"/>
<path d="M54.535 5.43566V3.37933H63.034V5.43566H65.159V13.6609H63.034V15.7172H54.7719V13.6609H52.4104V5.43566H54.535Z" fill="black"/>
<path d="M54.535 52.7309V17.7735H65.159V52.7309H54.535Z" fill="black"/>
<path d="M73.6581 7.49194H84.2817V17.7735H92.7808V28.0551H84.2817V42.4493H90.6558V44.5058H92.7808V52.7309H80.0322V50.6744H75.7826V46.5618H73.6581V28.0551H67.2836V17.7735H73.6581V7.49194Z" fill="black"/>
<path fill-rule="evenodd" clip-rule="evenodd" d="M124.652 5.43566V3.37933H135.276V5.43566H137.4V9.54826H139.525V15.7172H141.65V19.8299H143.774V25.9988H145.899V32.1677H148.024V36.2803H150.149V42.4493H152.273V48.6183H154.398V52.7309H141.65V46.5618H139.525V40.393H120.402V46.5618H118.278V52.7309H105.529V48.6183H107.654V42.4493H109.779V38.3367H111.904V32.1677H114.028V25.9988H116.153V21.8861H118.278V15.7172H120.402V9.54826H122.527V5.43566H124.652ZM135.276 28.0551V30.1114H124.652V28.0551H126.777V23.9425H128.901V17.7735H131.026V23.9425H133.151V28.0551H135.276Z" fill="black"/>
<path d="M156.523 17.7735V52.7309H167.147V30.1114H169.272V28.0551H171.396V25.9988H175.646V28.0551H177.77V30.1114H179.895V52.7309H190.519V25.9988H188.394V21.8861H186.269V19.8299H184.145V17.7735H169.272V19.8299H167.147V17.7735H156.523Z" fill="black"/>
<path d="M195.477 5.43566V3.37933H203.976V5.43566H206.1V13.6609H203.504V15.7172H195.477V13.6609H193.352V5.43566H195.477Z" fill="black"/>
<path d="M194.06 52.7309V17.7735H204.684V52.7309H194.06Z" fill="black"/>
<path d="M208.225 17.7735V52.7309H218.849V32.1677H220.974V28.0551H225.223V25.9988H227.348V28.0551H229.473V52.7309H240.097V34.224H242.221V28.0551H246.471V25.9988H248.595V28.0551H250.72V30.1114H252.845V52.7309H263.469V25.9988H261.344V21.8861H259.219V19.8299H257.094V17.7735H242.221V19.8299H240.097V21.8861H237.972V19.8299H235.847V17.7735H220.974V19.8299H218.849V17.7735H208.225Z" fill="black"/>
<path fill-rule="evenodd" clip-rule="evenodd" d="M291.799 17.7735H272.676V19.8299H270.551V21.8861H268.427V23.9425H266.302V25.9988H266.538V28.0551H276.925V25.9988H285.424V28.0551H287.549V30.1114H272.676V32.1677H270.551V34.224H268.427V36.2803H266.302V46.5618H268.427V50.6744H272.676V52.7309H285.424V50.6744H287.549V52.7309H298.173V23.9425H296.048V21.8861H293.923V19.8299H291.799V17.7735ZM276.925 44.5058H285.424V42.4493H287.549V38.3367H276.925V44.5058Z" fill="black"/>
<path d="M301.714 52.7309H312.338V3.37933H301.714V52.7309Z" fill="black"/>
<path d="M320.837 19.8299V17.7735H337.835V19.8299H342.084V21.8861H344.209V28.0551H333.585V25.9988H327.211V30.1114H335.71V32.1677H339.96V34.224H344.209V48.6183H342.084V50.6744H337.835V52.7309H322.961V50.6744H318.712V48.6183H316.587V46.5618H314.462V42.4493H316.587V40.393H325.086V42.4493H327.211V44.5058H333.585V42.4493H335.71V40.393H331.461V38.3367H322.961V36.2803H318.712V34.224H316.587V21.8861H318.712V19.8299H320.837Z" fill="black"/>
</g>
</mask>
<g mask="url(#mask0_1_18)">
<rect x="-25.8461" y="-12.9231" width="396.308" height="90.4615" fill="white"/>
</g>
<defs>
<clipPath id="clip0_1_18">
<rect width="344.615" height="56" fill="white"/>
</clipPath>
</defs>
</svg>
