<svg width="384" height="80" viewBox="0 0 384 80" fill="none" xmlns="http://www.w3.org/2000/svg">
<path d="M12 4H372V8H376V12H380V68H376V72H372V76H12V72H8V68H4V12H8V8H12V4Z" fill="#FFA109"/>
<path d="M123.304 53.2676H121.225V51.4193H119.278V49.4389H117.429V30.6583H119.278V28.6449H121.225V26.7965H123.304V25.2122H137.959V26.8625H139.709V30.6913H137.959V32.2096H127.232V33.9589H125.219V46.1713H127.232V47.8876H133.734V43.6958H130.929V42.2765H129.51V38.1177H130.929V36.6984H139.577V38.1177H140.996V53.2676H139.18V54.8849H123.304V53.2676ZM166.752 30.5922V49.5049H164.871V51.5183H163.056V53.2676H161.372V54.8849H148.83V53.2676H147.147V51.5183H145.331V49.5049H143.45V30.5922H145.331V28.5788H147.147V26.7965H148.83V25.2122H161.372V26.7965H163.056V28.5788H164.871V30.5922H166.752ZM151.074 33.8269V46.2703H152.791V48.0526H157.412V46.2703H159.128V33.8269H157.412V32.0115H152.791V33.8269H151.074ZM190.103 26.7305H191.622V30.7903H190.103V32.3086H183.997V53.3667H182.479V54.8849H177.594V53.3667H176.076V32.3086H169.871V30.7903H168.352V26.7305H169.871V25.2122H190.103V26.7305ZM201.118 34.0249V46.0722H203.032V47.8546H213.693V49.4719H215.443V53.2346H213.693V54.8849H199.039V53.2676H196.959V51.4193H195.012V49.4389H193.163V30.6583H195.012V28.6449H196.959V26.7965H199.039V25.2122H213.693V26.8625H215.443V30.6252H213.693V32.2096H203.032V34.0249H201.118ZM232.949 26.7305H234.467V25.2122H239.187V26.7305H240.705V53.3667H239.187V54.8849H234.467V53.3667H232.949V43.2667H225.489V53.3667H223.773V54.8849H219.284V53.3667H217.766V26.7305H219.284V25.2122H223.773V26.7305H225.489V36.2363H232.949V26.7305ZM259.774 36.6654H258.058V34.322H256.44V32.2756H254.196V34.322H252.579V36.6654H250.862V39.603H259.774V36.6654ZM250.862 46.3363V53.3667H249.245V54.8849H244.756V53.3667H243.172V33.8929H244.888V31.1864H246.604V28.8429H248.288V26.9285H249.905V25.2122H260.698V26.9285H262.282V28.8429H263.966V31.1864H265.715V33.8929H267.464V53.3667H265.847V54.8849H261.358V53.3667H259.774V46.3363H250.862Z" fill="black"/>
<path fill-rule="evenodd" clip-rule="evenodd" d="M372 4H12V8H8V12H4V68H8V72H12V76H372V72H376V68H380V12H376V8L372 8V4ZM364 16H20V20H16V60H20V64H364V60H368V20H364V16Z" fill="#F49400"/>
<path fill-rule="evenodd" clip-rule="evenodd" d="M372 0H12V4H8V8H4V12H0V68H4V72H8V76H12V80H372V76H376V72H380V68H384V12H380V8H376V4H372V0ZM372 4V8H376V12H380V68H376V72H372V76H12V72H8V68H4V12H8V8H12V4H372Z" fill="#141414"/>
</svg>
