<svg width="1500" height="800" viewBox="0 0 1500 800" fill="none" xmlns="http://www.w3.org/2000/svg">
<rect x="1" y="13" width="2" height="774" stroke="black" stroke-width="2"/>
<rect x="13" y="1" width="1474" height="2" stroke="black" stroke-width="2"/>
<rect x="1497" y="13" width="2" height="774" stroke="black" stroke-width="2"/>
<rect x="13" y="797" width="1474" height="2" stroke="black" stroke-width="2"/>
<rect x="4" y="12" width="1492" height="776" fill="#FFA109"/>
<rect x="8" y="8" width="1484" height="784" fill="#FFA109"/>
<rect x="12" y="4" width="1476" height="792" fill="#FFA109"/>
<rect x="12" width="4" height="4" fill="black"/>
<rect x="8" y="4" width="4" height="4" fill="black"/>
<rect x="4" y="8" width="4" height="4" fill="black"/>
<rect y="12" width="4" height="4" fill="black"/>
<rect x="1496" y="12" width="4" height="4" fill="black"/>
<rect x="1492" y="8" width="4" height="4" fill="black"/>
<rect x="1488" y="4" width="4" height="4" fill="black"/>
<rect x="1484" width="4" height="4" fill="black"/>
<rect width="4" height="4" transform="matrix(-1 0 0 1 1488 796)" fill="black"/>
<rect width="4" height="4" transform="matrix(-1 0 0 1 1492 792)" fill="black"/>
<rect width="4" height="4" transform="matrix(-1 0 0 1 1496 788)" fill="black"/>
<rect width="4" height="4" transform="matrix(-1 0 0 1 1500 784)" fill="black"/>
<rect x="4" y="788" width="4" height="4" transform="rotate(180 4 788)" fill="black"/>
<rect x="8" y="792" width="4" height="4" transform="rotate(180 8 792)" fill="black"/>
<rect x="12" y="796" width="4" height="4" transform="rotate(180 12 796)" fill="black"/>
<rect x="16" y="800" width="4" height="4" transform="rotate(180 16 800)" fill="black"/>
</svg>
