<svg width="1357" height="199" viewBox="0 0 1357 199" fill="none" xmlns="http://www.w3.org/2000/svg">
<rect x="535" y="22" width="30" height="6" fill="#EAEDEF"/>
<rect x="523" y="28" width="48" height="6" fill="#EAEDEF"/>
<rect x="523" y="34" width="54" height="6" fill="#EAEDEF"/>
<rect x="517" y="40" width="60" height="60" fill="#EAEDEF"/>
<rect x="517" y="46" width="66" height="12" fill="#EAEDEF"/>
<rect x="511" y="52" width="66" height="6" fill="#EAEDEF"/>
<rect x="511" y="100" width="60" height="6" fill="#EAEDEF"/>
<rect x="505" y="58" width="78" height="6" fill="#EAEDEF"/>
<rect x="511" y="64" width="72" height="12" fill="#EAEDEF"/>
<rect x="511" y="76" width="72" height="18" fill="#EAEDEF"/>
<rect x="505" y="82" width="72" height="12" fill="#EAEDEF"/>
<rect x="499" y="88" width="72" height="6" fill="#EAEDEF"/>
<rect x="505" y="94" width="72" height="6" fill="#EAEDEF"/>
<rect x="523" y="106" width="30" height="6" fill="#EAEDEF"/>
<rect x="529" y="34" width="42" height="72" fill="#EAEDEF"/>
<rect x="547" y="40" width="6.72" height="10.08" fill="black"/>
<rect x="563.797" y="40" width="6.72" height="10.08" fill="black"/>
<rect x="523" y="28" width="6" height="12" fill="black" fill-opacity="0.1"/>
<rect x="517" y="40" width="6" height="12" fill="black" fill-opacity="0.1"/>
<rect x="511" y="52" width="6" height="6" fill="black" fill-opacity="0.1"/>
<rect x="505" y="58" width="6" height="6" fill="black" fill-opacity="0.1"/>
<rect x="511" y="64" width="6" height="18" fill="black" fill-opacity="0.1"/>
<rect x="517" y="76" width="6" height="6" fill="black" fill-opacity="0.1"/>
<rect x="505" y="82" width="24" height="18" fill="black" fill-opacity="0.1"/>
<rect x="499" y="88" width="18" height="6" fill="black" fill-opacity="0.1"/>
<rect x="505" y="82" width="6" height="6" fill="black" fill-opacity="0.1"/>
<rect x="505" y="94" width="18" height="6" fill="black" fill-opacity="0.1"/>
<rect x="511" y="100" width="24" height="6" fill="black" fill-opacity="0.1"/>
<rect x="499" y="88" width="6" height="6" fill="black" fill-opacity="0.1"/>
<rect x="511" y="100" width="12" height="6" fill="black" fill-opacity="0.1"/>
<rect x="523" y="106" width="18" height="6" fill="black" fill-opacity="0.1"/>
<rect x="523" y="106" width="30" height="6" fill="black" fill-opacity="0.1"/>
<rect x="553" y="100" width="18" height="6" fill="black" fill-opacity="0.1"/>
<rect x="571" y="94" width="6" height="6" fill="black" fill-opacity="0.1"/>
<rect x="577" y="88" width="6" height="6" fill="black" fill-opacity="0.1"/>
<rect x="577" y="58" width="18" height="6" fill="#EAEDEF"/>
<rect x="577" y="64" width="12" height="6" fill="#EAEDEF"/>
<rect x="541" y="13" width="4.8" height="13.5" fill="#FFD600"/>
<rect x="545.797" y="17.5" width="4.8" height="9" fill="#FFD600"/>
<rect x="550.602" y="13" width="4.8" height="13.5" fill="#FFD600"/>
<rect x="555.398" y="17.5" width="4.8" height="9" fill="#FFD600"/>
<rect x="560.203" y="13" width="4.8" height="13.5" fill="#FFD600"/>
<rect x="552.332" y="58" width="13.3333" height="5.33333" fill="#E2141F"/>
<rect x="555" y="60.668" width="13.3333" height="5.33333" fill="#E2141F"/>
<rect x="560.332" y="63.332" width="10.6667" height="5.33333" fill="#E2141F"/>
<rect x="557.668" y="66" width="13.3333" height="5.33333" fill="#E2141F"/>
<rect x="560.332" y="68.668" width="8" height="5.33333" fill="#E2141F"/>
<rect x="547" y="58" width="24" height="2.66667" fill="#7C2C34"/>
<rect x="549.664" y="60.668" width="2.66667" height="2.66667" fill="black" fill-opacity="0.19"/>
<rect x="552.332" y="63.332" width="2.66667" height="2.66667" fill="black" fill-opacity="0.19"/>
<rect x="555" y="66" width="2.66667" height="5.33333" fill="black" fill-opacity="0.19"/>
<rect x="557.668" y="71.332" width="2.66667" height="2.66667" fill="black" fill-opacity="0.19"/>
<rect x="560.332" y="74" width="5.33333" height="2.66667" fill="black" fill-opacity="0.19"/>
<path d="M70.7371 7.96V0H143.334V7.96H150.778V15.92H167.531V23.88H175.907V31.84H184.284V39.8H175.907V47.76H167.531V55.72H159.154V63.68H150.778V55.72H142.401V47.76H117.272V39.8H100.519V47.76H75.3889V55.72H58.6358V71.64H50.2593V87.56H41.8827V119.4H50.2593V135.32H58.6358V143.28H67.0123V151.24H75.3889V159.2H134.025V151.24H150.778V135.32H159.154V127.36H100.519V87.56H201.037V151.24H192.66V167.16H184.284V175.12H175.907V183.08H159.154V191.04H142.401V199H67.0123V191.04H50.2593V183.08H41.8827V175.12H25.1296V159.2H16.7531V151.24H8.37654V127.36H0V71.64H8.37654V55.72H16.7531V39.8H25.1296V31.84H33.5062V23.88H50.2593V15.92H58.6358V7.96H70.7371Z" fill="#FFD600"/>
<path d="M214.998 15.92V7.96H248.504V15.92H256.881V47.76H248.504V55.72H215.93V47.76H206.621V15.92H214.998Z" fill="#FFD600"/>
<path d="M214.998 199V63.68H256.881V199H214.998Z" fill="#FFD600"/>
<path d="M290.387 23.88H332.27V63.68H365.776V103.48H332.27V159.2H357.399V167.16H365.776V199H315.516V191.04H298.763V175.12H290.387V103.48H265.257V63.68H290.387V23.88Z" fill="#FFD600"/>
<path fill-rule="evenodd" clip-rule="evenodd" d="M491.424 15.92V7.96H533.307V15.92H541.683V31.84H550.06V55.72H558.436V71.64H566.813V95.52H575.189V119.4H583.566V135.32H591.942V159.2H600.319V183.08H608.695V199H558.436V175.12H550.06V151.24H474.671V175.12H466.294V199H416.035V183.08H424.411V159.2H432.788V143.28H441.165V119.4H449.541V95.52H457.918V79.6H466.294V55.72H474.671V31.84H483.047V15.92H491.424ZM533.307 103.48V111.44H491.424V103.48H499.8V87.56H508.177V63.68H516.553V87.56H524.93V103.48H533.307Z" fill="#FFD600"/>
<path d="M617.072 63.68V199H658.955V111.44H667.331V103.48H675.708V95.52H692.461V103.48H700.837V111.44H709.214V199H751.097V95.52H742.72V79.6H734.344V71.64H725.967V63.68H667.331V71.64H658.955V63.68H617.072Z" fill="#FFD600"/>
<path d="M770.642 15.92V7.96H804.148V15.92H812.525V47.76H802.289V55.72H770.642V47.76H762.265V15.92H770.642Z" fill="#FFD600"/>
<path d="M765.058 199V63.68H806.94V199H765.058Z" fill="#FFD600"/>
<path d="M820.901 63.68V199H862.784V119.4H871.16V103.48H887.914V95.52H896.29V103.48H904.667V199H946.549V127.36H954.926V103.48H971.679V95.52H980.056V103.48H988.432V111.44H996.809V199H1038.69V95.52H1030.31V79.6H1021.94V71.64H1013.56V63.68H954.926V71.64H946.549V79.6H938.173V71.64H929.796V63.68H871.16V71.64H862.784V63.68H820.901Z" fill="#FFD600"/>
<path fill-rule="evenodd" clip-rule="evenodd" d="M1150.38 63.68H1074.99V71.64H1066.61V79.6H1058.24V87.56H1049.86V95.52H1050.79V103.48H1091.74V95.52H1125.25V103.48H1133.63V111.44H1074.99V119.4H1066.61V127.36H1058.24V135.32H1049.86V175.12H1058.24V191.04H1074.99V199H1125.25V191.04H1133.63V199H1175.51V87.56H1167.13V79.6H1158.76V71.64H1150.38V63.68ZM1091.74 167.16H1125.25V159.2H1133.63V143.28H1091.74V167.16Z" fill="#FFD600"/>
<path d="M1189.47 199H1231.35V7.96H1189.47V199Z" fill="#FFD600"/>
<path d="M1264.86 71.64V63.68H1331.87V71.64H1348.62V79.6H1357V103.48H1315.12V95.52H1289.99V111.44H1323.49V119.4H1340.25V127.36H1357V183.08H1348.62V191.04H1331.87V199H1273.23V191.04H1256.48V183.08H1248.1V175.12H1239.73V159.2H1248.1V151.24H1281.61V159.2H1289.99V167.16H1315.12V159.2H1323.49V151.24H1306.74V143.28H1273.23V135.32H1256.48V127.36H1248.1V79.6H1256.48V71.64H1264.86Z" fill="#FFD600"/>
</svg>
