<svg width="96" height="99" viewBox="0 0 96 99" fill="none" xmlns="http://www.w3.org/2000/svg">
<rect width="30" height="6" transform="matrix(-1 0 0 1 60 9)" fill="#EAEDEF"/>
<rect width="48" height="6" transform="matrix(-1 0 0 1 72 15)" fill="#EAEDEF"/>
<rect width="54" height="6" transform="matrix(-1 0 0 1 72 21)" fill="#EAEDEF"/>
<rect width="60" height="60" transform="matrix(-1 0 0 1 78 27)" fill="#EAEDEF"/>
<rect width="66" height="12" transform="matrix(-1 0 0 1 78 33)" fill="#EAEDEF"/>
<rect width="66" height="6" transform="matrix(-1 0 0 1 84 39)" fill="#EAEDEF"/>
<rect width="60" height="6" transform="matrix(-1 0 0 1 84 87)" fill="#EAEDEF"/>
<rect width="78" height="6" transform="matrix(-1 0 0 1 90 45)" fill="#EAEDEF"/>
<rect width="72" height="12" transform="matrix(-1 0 0 1 84 51)" fill="#EAEDEF"/>
<rect width="72" height="18" transform="matrix(-1 0 0 1 84 63)" fill="#EAEDEF"/>
<rect width="72" height="12" transform="matrix(-1 0 0 1 90 69)" fill="#EAEDEF"/>
<rect width="72" height="6" transform="matrix(-1 0 0 1 96 75)" fill="#EAEDEF"/>
<rect width="72" height="6" transform="matrix(-1 0 0 1 90 81)" fill="#EAEDEF"/>
<rect width="30" height="6" transform="matrix(-1 0 0 1 72 93)" fill="#EAEDEF"/>
<rect width="42" height="72" transform="matrix(-1 0 0 1 66 21)" fill="#EAEDEF"/>
<rect width="6.72" height="10.08" transform="matrix(-1 0 0 1 48 27)" fill="black"/>
<rect width="6.72" height="10.08" transform="matrix(-1 0 0 1 31.2012 27)" fill="black"/>
<rect width="6" height="12" transform="matrix(-1 0 0 1 72 15)" fill="black" fill-opacity="0.1"/>
<rect width="6" height="12" transform="matrix(-1 0 0 1 78 27)" fill="black" fill-opacity="0.1"/>
<rect width="6" height="6" transform="matrix(-1 0 0 1 84 39)" fill="black" fill-opacity="0.1"/>
<rect width="6" height="6" transform="matrix(-1 0 0 1 90 45)" fill="black" fill-opacity="0.1"/>
<rect width="6" height="18" transform="matrix(-1 0 0 1 84 51)" fill="black" fill-opacity="0.1"/>
<rect width="6" height="6" transform="matrix(-1 0 0 1 78 63)" fill="black" fill-opacity="0.1"/>
<rect width="24" height="18" transform="matrix(-1 0 0 1 90 69)" fill="black" fill-opacity="0.1"/>
<rect width="18" height="6" transform="matrix(-1 0 0 1 96 75)" fill="black" fill-opacity="0.1"/>
<rect width="6" height="6" transform="matrix(-1 0 0 1 90 69)" fill="black" fill-opacity="0.1"/>
<rect width="18" height="6" transform="matrix(-1 0 0 1 90 81)" fill="black" fill-opacity="0.1"/>
<rect width="24" height="6" transform="matrix(-1 0 0 1 84 87)" fill="black" fill-opacity="0.1"/>
<rect width="6" height="6" transform="matrix(-1 0 0 1 96 75)" fill="black" fill-opacity="0.1"/>
<rect width="12" height="6" transform="matrix(-1 0 0 1 84 87)" fill="black" fill-opacity="0.1"/>
<rect width="18" height="6" transform="matrix(-1 0 0 1 72 93)" fill="black" fill-opacity="0.1"/>
<rect width="30" height="6" transform="matrix(-1 0 0 1 72 93)" fill="black" fill-opacity="0.1"/>
<rect width="18" height="6" transform="matrix(-1 0 0 1 42 87)" fill="black" fill-opacity="0.1"/>
<rect width="6" height="6" transform="matrix(-1 0 0 1 24 81)" fill="black" fill-opacity="0.1"/>
<rect width="6" height="6" transform="matrix(-1 0 0 1 18 75)" fill="black" fill-opacity="0.1"/>
<rect width="13.3333" height="5.33333" transform="matrix(-1 0 0 1 42.668 45)" fill="#E2141F"/>
<rect width="13.3333" height="5.33333" transform="matrix(-1 0 0 1 39.999 47.6667)" fill="#E2141F"/>
<rect width="10.6667" height="5.33333" transform="matrix(-1 0 0 1 34.667 50.3331)" fill="#E2141F"/>
<rect width="13.3333" height="5.33333" transform="matrix(-1 0 0 1 37.333 52.9999)" fill="#E2141F"/>
<rect width="8" height="5.33333" transform="matrix(-1 0 0 1 34.667 55.6666)" fill="#E2141F"/>
<rect width="24" height="2.66667" transform="matrix(-1 0 0 1 48 45)" fill="#7C2C34"/>
<rect width="2.66667" height="2.66667" transform="matrix(-1 0 0 1 45.334 47.6667)" fill="black" fill-opacity="0.19"/>
<rect width="2.66667" height="2.66667" transform="matrix(-1 0 0 1 42.668 50.3331)" fill="black" fill-opacity="0.19"/>
<rect width="2.66667" height="5.33333" transform="matrix(-1 0 0 1 39.999 52.9999)" fill="black" fill-opacity="0.19"/>
<rect width="2.66667" height="2.66667" transform="matrix(-1 0 0 1 37.333 58.3334)" fill="black" fill-opacity="0.19"/>
<rect width="5.33333" height="2.66667" transform="matrix(-1 0 0 1 34.667 61.0001)" fill="black" fill-opacity="0.19"/>
<rect width="18" height="6" transform="matrix(-1 0 0 1 18 45)" fill="#EAEDEF"/>
<rect width="12" height="6" transform="matrix(-1 0 0 1 18 51)" fill="#EAEDEF"/>
<rect width="4.8" height="13.5" transform="matrix(-1 0 0 1 54 0)" fill="#FFD600"/>
<rect width="4.8" height="9" transform="matrix(-1 0 0 1 49.2012 4.5)" fill="#FFD600"/>
<rect width="4.8" height="13.5" transform="matrix(-1 0 0 1 44.3994 0)" fill="#FFD600"/>
<rect width="4.8" height="9" transform="matrix(-1 0 0 1 39.6006 4.5)" fill="#FFD600"/>
<rect width="4.8" height="13.5" transform="matrix(-1 0 0 1 34.7988 0)" fill="#FFD600"/>
</svg>
